<?xml version="1.0" standalone="no"?>
<!DOCTYPE svg PUBLIC "-//W3C//DTD SVG 20010904//EN"
 "http://www.w3.org/TR/2001/REC-SVG-20010904/DTD/svg10.dtd">
<svg version="1.0" xmlns="http://www.w3.org/2000/svg"
 width="640.000000pt" height="640.000000pt" viewBox="0 0 640.000000 640.000000"
 preserveAspectRatio="xMidYMid meet">
<metadata>
Created by potrace 1.14, written by Peter Selinger 2001-2017
</metadata>
<g transform="translate(0.000000,640.000000) scale(0.100000,-0.100000)"
fill="#000000" stroke="none">
<path d="M2598 6153 c-53 -55 -84 -111 -92 -168 -6 -39 -6 -39 13 10 28 77 57
118 97 141 21 12 41 31 45 43 14 36 -13 25 -63 -26z"/>
<path d="M2481 5883 c-6 -31 -10 -79 -10 -107 2 -51 2 -51 9 14 4 36 10 84 14
108 11 63 1 51 -13 -15z"/>
<path d="M3808 5903 c7 -3 16 -2 19 1 4 3 -2 6 -13 5 -11 0 -14 -3 -6 -6z"/>
<path d="M4208 5863 c7 -3 16 -2 19 1 4 3 -2 6 -13 5 -11 0 -14 -3 -6 -6z"/>
<path d="M4148 5853 c7 -3 16 -2 19 1 4 3 -2 6 -13 5 -11 0 -14 -3 -6 -6z"/>
<path d="M3034 5835 c11 -8 25 -15 30 -15 6 0 2 7 -8 15 -11 8 -25 15 -30 15
-6 0 -2 -7 8 -15z"/>
<path d="M2009 5753 l-24 -28 28 24 c25 23 32 31 24 31 -2 0 -14 -12 -28 -27z"/>
<path d="M3105 5767 c11 -8 34 -22 50 -32 l30 -17 -33 31 c-18 17 -40 31 -49
31 -15 0 -15 -2 2 -13z"/>
<path d="M4277 5663 c-36 -112 -59 -228 -60 -303 0 -53 6 -76 30 -125 17 -33
43 -98 59 -144 20 -59 30 -78 35 -65 3 11 4 21 0 24 -15 12 -30 61 -41 135 -7
44 -20 102 -31 129 l-19 50 69 -69 69 -69 -25 -33 c-39 -51 -24 -47 30 7 l47
48 -35 26 c-20 15 -32 32 -29 38 4 6 3 9 -2 6 -5 -3 -25 7 -44 23 l-34 29 26
0 c38 0 157 45 179 67 18 18 47 189 33 202 -3 3 -31 -20 -61 -53 -30 -32 -77
-74 -105 -94 -28 -19 -61 -46 -74 -61 -39 -46 -37 -15 4 46 52 76 78 130 93
188 13 53 3 69 -37 59 -12 -3 -25 -1 -28 5 -15 23 -25 8 -49 -66z"/>
<path d="M3130 5721 c0 -5 7 -12 16 -15 14 -5 15 -4 4 9 -14 17 -20 19 -20 6z"/>
<path d="M1959 5693 c-13 -16 -12 -17 4 -4 16 13 21 21 13 21 -2 0 -10 -8 -17
-17z"/>
<path d="M2144 5668 c-29 -36 -120 -215 -112 -223 3 -3 17 20 32 50 16 30 32
52 37 49 5 -3 9 -2 10 3 0 4 2 17 3 29 1 11 14 36 28 55 24 32 42 69 34 69 -3
0 -17 -15 -32 -32z"/>
<path d="M4157 5535 c6 -38 30 -84 45 -85 8 0 -3 43 -13 50 -4 3 -14 21 -23
40 l-15 35 6 -40z"/>
<path d="M4120 5535 c13 -14 26 -23 28 -20 7 7 -29 45 -41 45 -6 0 0 -11 13
-25z"/>
<path d="M3900 5505 c-8 -9 -8 -20 -2 -32 8 -14 4 -27 -17 -56 -16 -20 -30
-35 -33 -32 -2 3 -22 7 -44 10 -43 6 -138 31 -259 68 -44 14 -81 23 -83 22 -1
-1 8 -18 20 -38 24 -36 28 -38 221 -92 31 -8 57 -19 57 -23 0 -4 -36 -45 -80
-91 -73 -77 -80 -88 -80 -125 0 -36 2 -39 15 -25 12 12 13 22 6 41 -9 23 -3
32 63 97 40 39 75 69 78 66 3 -4 5 2 5 12 -2 22 32 21 145 -8 72 -18 128 -24
128 -15 0 3 -4 16 -9 29 -8 21 -22 27 -85 42 -42 9 -76 18 -76 21 0 3 18 27
40 55 21 27 37 56 34 64 -8 20 -31 26 -44 10z"/>
<path d="M4035 5470 c21 -22 41 -40 44 -40 3 0 -13 18 -34 40 -21 22 -41 40
-44 40 -3 0 13 -18 34 -40z"/>
<path d="M3847 5443 c-15 -20 -24 -39 -21 -42 5 -6 35 28 55 62 18 31 -5 17
-34 -20z"/>
<path d="M1708 5340 c-22 -25 -32 -29 -54 -24 -24 6 -26 5 -19 -17 10 -32 33
-78 57 -112 11 -16 18 -30 15 -33 -3 -3 -43 6 -89 20 -46 14 -98 26 -116 26
-32 0 -32 -1 -32 -48 0 -27 6 -57 14 -68 14 -18 16 -18 98 -1 45 9 94 20 107
24 39 10 23 -10 -78 -99 -52 -46 -96 -88 -98 -94 -5 -15 45 -74 62 -74 22 0
145 184 145 216 0 10 9 27 19 38 15 16 20 37 21 86 3 73 -10 190 -19 190 -4 0
-19 -14 -33 -30z"/>
<path d="M4698 5363 c7 -3 16 -2 19 1 4 3 -2 6 -13 5 -11 0 -14 -3 -6 -6z"/>
<path d="M4968 5343 c7 -3 16 -2 19 1 4 3 -2 6 -13 5 -11 0 -14 -3 -6 -6z"/>
<path d="M4903 5321 c38 -13 112 -75 149 -125 23 -31 28 -35 23 -16 -19 62
-103 135 -165 145 -33 5 -33 4 -7 -4z"/>
<path d="M5027 5315 c3 -8 9 -12 14 -9 12 7 11 11 -5 17 -10 4 -13 1 -9 -8z"/>
<path d="M3785 5290 c-10 -11 -23 -17 -29 -13 -6 3 -8 3 -4 -2 4 -4 -5 -24
-19 -44 l-27 -36 43 40 c38 36 68 75 58 75 -2 0 -12 -9 -22 -20z"/>
<path d="M5133 5271 c31 -17 74 -43 95 -58 l37 -27 -25 28 c-25 28 -94 68
-140 80 -14 4 1 -7 33 -23z"/>
<path d="M1856 5265 c-3 -9 -6 -22 -5 -28 0 -7 5 -1 10 12 5 13 8 26 5 28 -2
2 -6 -3 -10 -12z"/>
<path d="M4095 5259 c10 -35 23 -45 18 -15 -3 15 -10 29 -15 32 -6 4 -7 -2 -3
-17z"/>
<path d="M4132 5244 c4 -15 78 -97 84 -92 2 2 -17 26 -42 54 -25 27 -44 44
-42 38z"/>
<path d="M4483 5225 c-53 -27 -143 -100 -143 -116 0 -5 10 0 22 11 24 22 38
10 18 -16 -11 -12 -10 -13 4 -8 9 3 16 10 16 14 0 5 5 21 10 36 10 25 12 26
29 10 16 -15 19 -15 31 -1 7 8 22 15 33 15 19 0 20 1 2 20 -20 23 -21 22 20
43 50 27 13 19 -42 -8z"/>
<path d="M4321 5224 c0 -11 3 -14 6 -6 3 7 2 16 -1 19 -3 4 -6 -2 -5 -13z"/>
<path d="M2795 5210 c10 -11 20 -20 23 -20 3 0 -3 9 -13 20 -10 11 -20 20 -23
20 -3 0 3 -9 13 -20z"/>
<path d="M1816 5139 c-14 -46 -28 -100 -31 -119 -3 -19 10 16 30 79 20 62 34
116 31 118 -3 3 -16 -33 -30 -78z"/>
<path d="M2840 5176 c0 -5 90 -56 99 -56 3 0 -14 14 -39 30 -42 28 -60 36 -60
26z"/>
<path d="M4136 5155 c4 -17 13 -50 21 -75 67 -219 93 -509 75 -827 -12 -201
-43 -399 -72 -452 -8 -16 -6 -27 10 -53 11 -18 22 -52 26 -75 3 -24 10 -43 14
-43 4 0 17 45 30 100 12 55 26 102 30 105 4 2 15 -11 25 -29 l18 -33 -32 -49
c-31 -49 -31 -48 29 16 67 72 143 180 134 189 -3 3 -14 -4 -24 -16 -9 -12 -20
-19 -24 -16 -3 4 -6 -3 -6 -14 0 -11 -6 -26 -14 -32 -11 -9 -10 4 5 60 10 40
20 89 20 108 1 35 2 34 17 -16 14 -51 32 -71 32 -37 0 10 6 14 14 11 10 -4 22
10 36 41 28 58 51 124 47 129 -5 4 -57 -111 -57 -125 0 -6 -5 -14 -12 -18 -7
-4 -8 -3 -4 4 16 26 46 218 46 290 -1 104 -14 74 -29 -63 -17 -155 -32 -245
-40 -245 -11 0 -95 227 -121 326 -48 178 -75 438 -60 572 6 58 5 80 -8 104
l-15 31 -24 -27 c-15 -17 -23 -22 -23 -12 0 17 -57 186 -65 195 -4 3 -3 -8 1
-24z"/>
<path d="M4241 5138 c1 -24 -2 -58 -6 -76 -7 -32 -6 -34 16 -30 20 2 24 9 27
45 3 37 -19 103 -34 103 -2 0 -4 -19 -3 -42z"/>
<path d="M2371 5120 c0 -8 4 -22 9 -30 12 -18 12 -2 0 25 -6 13 -9 15 -9 5z"/>
<path d="M5102 5070 c-1 -19 -5 -46 -8 -60 -5 -21 -4 -23 6 -7 6 9 9 36 7 60
-3 39 -4 39 -5 7z"/>
<path d="M3640 5038 c0 -9 5 -20 10 -23 13 -8 13 5 0 25 -8 13 -10 13 -10 -2z"/>
<path d="M4610 5010 c7 -14 23 -38 36 -53 40 -48 120 -219 139 -297 18 -75 60
-160 82 -167 7 -3 20 18 30 47 11 33 30 60 51 76 17 14 32 31 32 38 0 7 -86
96 -192 197 -105 101 -185 173 -178 159z"/>
<path d="M3905 5003 c-71 -7 -155 -14 -186 -16 l-55 -2 10 -33 c9 -31 11 -32
55 -27 25 2 87 7 136 10 162 10 203 16 210 33 9 23 -4 52 -23 51 -9 -1 -75 -8
-147 -16z"/>
<path d="M4540 5016 c0 -2 8 -10 18 -17 15 -13 16 -12 3 4 -13 16 -21 21 -21
13z"/>
<path d="M2400 4993 c0 -17 37 -119 55 -149 18 -32 16 -23 -22 81 -26 71 -33
86 -33 68z"/>
<path d="M1751 4873 c-21 -110 -27 -175 -11 -119 13 43 42 217 37 222 -2 3
-14 -44 -26 -103z"/>
<path d="M4073 4895 c1 -22 0 -63 -1 -90 l-2 -51 -60 3 c-33 2 -60 -1 -60 -7
0 -5 9 -7 20 -5 28 5 50 -4 50 -21 0 -11 -22 -14 -102 -15 -88 -1 -96 -3 -53
-9 28 -5 82 -9 121 -9 l71 -1 6 -77 c3 -43 2 -145 -3 -228 -5 -82 -7 -151 -5
-153 8 -8 22 118 24 216 1 57 3 62 24 62 40 0 67 12 67 29 0 13 -2 13 -9 2
-14 -22 -31 -3 -32 37 0 20 -4 55 -9 77 -8 32 -9 26 -5 -35 4 -67 2 -77 -15
-88 -12 -7 -20 -8 -20 -2 0 5 5 10 11 10 7 0 8 7 4 18 -22 53 -26 308 -5 285
10 -10 60 -222 60 -251 0 -11 4 -23 8 -26 16 -9 -18 159 -52 264 -27 85 -34
97 -33 65z"/>
<path d="M3370 4914 c0 -6 19 -28 43 -49 l42 -40 -40 45 c-22 25 -41 47 -42
49 -2 2 -3 0 -3 -5z"/>
<path d="M3582 4900 c0 -14 2 -19 5 -12 2 6 2 18 0 25 -3 6 -5 1 -5 -13z"/>
<path d="M3958 4833 c5 -21 7 -23 10 -9 2 10 0 22 -6 28 -6 6 -7 0 -4 -19z"/>
<path d="M4623 4758 c23 -59 43 -103 45 -99 4 11 -56 164 -73 187 -7 10 5 -29
28 -88z"/>
<path d="M1797 4733 c-29 -84 -45 -177 -41 -234 5 -79 27 -133 30 -74 1 14 -2
22 -7 19 -5 -3 -8 19 -7 48 1 36 2 43 5 20 2 -18 9 -30 14 -27 5 4 9 -16 9
-46 0 -33 4 -49 9 -43 9 9 28 414 19 414 -2 0 -16 -35 -31 -77z m12 -130 l0
-98 -15 48 c-11 37 -12 52 -4 62 7 8 9 19 6 24 -6 10 2 61 10 61 2 0 4 -44 3
-97z"/>
<path d="M1468 4793 c7 -3 16 -2 19 1 4 3 -2 6 -13 5 -11 0 -14 -3 -6 -6z"/>
<path d="M3030 4755 c0 -5 5 -17 10 -25 5 -8 10 -10 10 -5 0 6 -5 17 -10 25
-5 8 -10 11 -10 5z"/>
<path d="M3752 4755 c9 -9 177 -11 172 -3 -3 4 -44 8 -91 8 -48 0 -84 -2 -81
-5z"/>
<path d="M1365 4740 c-21 -5 -7 -8 50 -8 53 0 73 2 60 8 -24 10 -69 10 -110 0z"/>
<path d="M1212 4716 c-47 -33 -51 -39 -19 -27 38 15 87 41 87 46 0 13 -38 2
-68 -19z"/>
<path d="M4102 4720 c0 -14 2 -19 5 -12 2 6 2 18 0 25 -3 6 -5 1 -5 -13z"/>
<path d="M3051 4705 c0 -5 7 -26 14 -45 9 -23 14 -28 14 -15 0 11 -6 31 -14
45 -8 14 -14 21 -14 15z"/>
<path d="M3765 4699 c-16 -6 -14 -8 13 -8 33 -1 41 4 20 12 -7 2 -22 1 -33 -4z"/>
<path d="M3508 4675 c-3 -3 -51 -14 -108 -25 -102 -19 -104 -20 -156 -72 -29
-29 -52 -54 -50 -55 1 -2 30 11 64 28 40 19 59 35 56 44 -8 20 17 30 31 12 7
-9 15 -14 18 -10 4 3 7 2 7 -4 0 -6 19 -13 43 -15 23 -3 51 -8 62 -13 17 -6
17 -5 -2 9 -13 10 -23 21 -23 27 0 5 10 9 23 9 17 0 19 -2 7 -10 -10 -6 0 -10
35 -12 41 -2 52 -7 60 -25 5 -13 13 -23 17 -23 4 0 7 10 5 23 -2 20 3 22 68
29 112 11 135 14 143 23 4 4 -14 5 -40 3 -31 -4 -48 -2 -48 5 0 8 -4 7 -11 0
-9 -9 -21 -8 -48 1 -61 22 -121 34 -127 25 -10 -17 -25 -9 -19 11 6 20 4 25
-7 15z"/>
<path d="M1564 4635 c-21 -32 -29 -136 -15 -195 5 -24 9 -46 7 -47 -2 -2 -20
4 -42 13 -52 22 -155 16 -184 -11 -46 -41 -65 -114 -47 -178 l8 -28 -43 29
c-302 207 -671 163 -856 -102 -93 -134 -146 -257 -183 -431 -21 -95 -24 -137
-24 -310 0 -181 3 -207 24 -275 29 -95 114 -270 162 -336 57 -78 198 -203 299
-266 84 -52 89 -57 63 -61 -20 -3 -19 -4 6 -2 22 1 68 -13 123 -38 160 -70
436 -127 618 -127 l58 0 -10 33 c-9 29 -13 32 -51 32 -141 2 -364 48 -482 100
-16 7 -70 28 -120 46 -105 39 -141 60 -251 145 -221 172 -342 407 -361 704
-12 179 53 498 135 660 91 182 260 279 489 280 144 0 226 -33 343 -138 l45
-41 -56 6 c-76 7 -124 -10 -182 -66 -58 -55 -77 -96 -77 -163 0 -74 63 -177
121 -197 33 -11 42 -2 33 34 -5 19 -2 25 10 25 23 0 31 -28 18 -62 -9 -24 -8
-30 8 -38 10 -6 30 -10 44 -10 20 0 26 5 26 23 0 13 -5 28 -12 35 -9 9 -7 13
6 18 24 9 31 -2 30 -46 -2 -44 9 -50 90 -50 47 0 48 0 42 -27 -5 -25 -4 -26 5
-7 8 16 23 23 57 27 26 3 49 3 51 1 2 -2 -6 -34 -17 -71 -11 -37 -24 -93 -27
-123 -4 -35 -21 -83 -48 -134 -39 -76 -77 -122 -224 -268 -26 -26 -45 -50 -42
-53 3 -3 57 48 121 113 97 99 121 130 156 202 23 47 42 76 42 65 0 -11 4 -25
8 -31 4 -7 7 29 8 80 0 58 8 114 20 155 l19 64 109 -7 c137 -8 245 -32 252
-54 3 -10 11 -30 18 -46 10 -25 14 -27 19 -12 4 10 3 15 -3 11 -6 -3 -10 -2
-10 4 0 5 -3 17 -7 26 -5 15 -3 16 16 6 12 -7 26 -22 31 -34 8 -20 9 -20 9 -2
1 29 16 7 36 -52 16 -51 33 -76 20 -30 -18 61 -17 63 14 28 l31 -34 0 52 c0
28 -4 51 -9 51 -5 0 -12 21 -16 48 -3 26 -15 81 -26 124 -21 83 -24 113 -10
88 5 -8 16 -49 26 -90 10 -41 22 -79 28 -85 6 -7 7 -1 3 18 -4 16 -3 26 1 24
4 -3 8 30 7 74 -1 62 -6 88 -25 124 -13 25 -28 45 -32 45 -5 0 -5 6 -1 13 4 6
4 9 -1 5 -4 -4 -14 -3 -21 3 -21 17 -29 -15 -15 -60 14 -48 15 -143 1 -121 -5
8 -10 26 -10 40 0 14 -10 45 -21 70 -16 34 -21 70 -24 148 -1 57 -5 106 -9
109 -3 4 -6 -11 -6 -32 l0 -39 -41 69 c-65 106 -124 181 -218 271 l-54 51 -5
94 c-3 72 -1 103 11 132 18 43 15 48 -9 12z m-38 -251 c31 -14 53 -28 51 -30
-2 -2 -30 5 -63 17 -84 29 -148 22 -186 -20 -30 -34 -39 -20 -10 16 38 49 125
56 208 17z m-238 -325 c28 -12 52 -25 52 -30 0 -5 -13 -3 -30 6 -16 8 -56 18
-89 21 -50 6 -67 3 -112 -19 -30 -14 -66 -37 -81 -51 -42 -40 -33 -11 10 35
26 29 53 45 87 55 58 15 89 12 163 -17z m278 -166 c-7 -7 -26 7 -26 19 0 6 6
6 15 -2 9 -7 13 -15 11 -17z m463 -184 l-1 -64 -13 67 c-8 37 -21 78 -29 90
-27 38 -18 41 14 5 27 -31 30 -41 29 -98z m-78 -136 l-9 -58 0 80 c-1 57 2 74
8 58 5 -13 6 -47 1 -80z m64 -93 c3 -5 1 -10 -4 -10 -6 0 -11 5 -11 10 0 6 2
10 4 10 3 0 8 -4 11 -10z"/>
<path d="M1712 4600 c0 -19 2 -27 5 -17 2 9 2 25 0 35 -3 9 -5 1 -5 -18z"/>
<path d="M3090 4559 c0 -13 5 -31 10 -39 7 -11 8 -5 4 20 -8 43 -14 51 -14 19z"/>
<path d="M3977 4567 c-11 -28 -9 -115 3 -97 6 10 10 -2 13 -40 l3 -55 1 55 c2
78 -10 160 -20 137z"/>
<path d="M1586 4548 c-3 -13 -5 -43 -5 -68 1 -41 2 -39 10 20 8 66 6 89 -5 48z"/>
<path d="M3702 4561 c-16 -9 -33 -69 -22 -76 8 -5 31 26 43 57 7 20 -4 30 -21
19z"/>
<path d="M1705 4465 c1 -49 8 -101 14 -115 9 -21 10 -18 5 19 -4 25 -10 76
-15 115 l-8 71 4 -90z"/>
<path d="M1623 4470 c0 -36 2 -50 4 -32 2 17 2 47 0 65 -2 17 -4 3 -4 -33z"/>
<path d="M2171 4515 c1 -19 18 -51 18 -35 0 8 -4 22 -9 30 -5 8 -9 11 -9 5z"/>
<path d="M3236 4475 c3 -27 10 -57 15 -65 11 -17 1 48 -12 90 -6 16 -7 8 -3
-25z"/>
<path d="M3384 4497 c-6 -17 11 -57 26 -57 5 0 4 14 -2 33 -14 41 -16 43 -24
24z"/>
<path d="M3447 4459 c-4 -16 -3 -18 9 -8 16 13 19 29 5 29 -5 0 -11 -9 -14
-21z"/>
<path d="M4880 4476 c0 -2 8 -10 18 -17 15 -13 16 -12 3 4 -13 16 -21 21 -21
13z"/>
<path d="M3655 4459 c-4 -6 -5 -12 -2 -15 2 -3 7 2 10 11 7 17 1 20 -8 4z"/>
<path d="M2357 4442 c-4 -5 3 -12 14 -15 12 -3 18 -10 15 -16 -4 -7 26 -9 89
-8 52 1 95 4 95 7 0 23 -201 53 -213 32z"/>
<path d="M3962 4420 c0 -19 2 -27 5 -17 2 9 2 25 0 35 -3 9 -5 1 -5 -18z"/>
<path d="M2260 4430 c0 -4 -13 -11 -29 -15 -16 -3 -32 -13 -35 -21 -3 -9 -10
-12 -16 -9 -5 3 -10 -1 -10 -10 0 -17 -65 -49 -80 -40 -10 6 -14 -38 -4 -47 3
-3 21 -2 40 2 32 7 46 -1 24 -15 -6 -4 -5 -12 4 -21 18 -18 43 -19 29 -1 -26
32 2 87 43 87 13 0 26 5 29 10 12 19 26 10 42 -27 8 -21 23 -48 33 -60 14 -19
19 -20 24 -8 3 8 1 15 -5 15 -12 0 -39 61 -39 88 0 14 10 22 33 27 30 8 31 8
7 12 -14 3 -32 10 -40 17 -21 18 -50 27 -50 16z m10 -54 c0 -2 -7 -7 -16 -10
-8 -3 -12 -2 -9 4 6 10 25 14 25 6z"/>
<path d="M4122 4431 c-10 -6 -6 -18 14 -52 16 -27 24 -35 21 -21 -5 20 -2 23
14 19 22 -6 26 8 4 17 -8 3 -14 9 -13 13 2 4 -1 9 -6 10 -5 1 -12 6 -15 12 -4
5 -12 6 -19 2z"/>
<path d="M1228 4415 c-3 -3 -32 -9 -64 -14 l-59 -9 50 0 c44 -1 134 25 94 27
-9 1 -18 -1 -21 -4z"/>
<path d="M1621 4384 c0 -11 3 -14 6 -6 3 7 2 16 -1 19 -3 4 -6 -2 -5 -13z"/>
<path d="M3936 4273 c-17 -114 -16 -152 2 -56 16 81 25 163 20 163 -3 0 -13
-48 -22 -107z"/>
<path d="M3982 4325 c0 -16 2 -22 5 -12 2 9 2 23 0 30 -3 6 -5 -1 -5 -18z"/>
<path d="M2485 4330 c-4 -6 1 -23 11 -38 22 -33 30 -16 10 22 -8 17 -17 23
-21 16z"/>
<path d="M2551 4318 c0 -9 -4 -25 -7 -35 -5 -14 -4 -15 5 -7 7 7 11 22 8 35
-2 13 -5 16 -6 7z"/>
<path d="M1730 4317 c0 -14 24 -57 32 -57 5 0 1 12 -9 28 -22 35 -23 36 -23
29z"/>
<path d="M2038 4293 c6 -2 18 -2 25 0 6 3 1 5 -13 5 -14 0 -19 -2 -12 -5z"/>
<path d="M4180 4280 c0 -5 5 -10 10 -10 6 0 10 5 10 10 0 6 -4 10 -10 10 -5 0
-10 -4 -10 -10z"/>
<path d="M4687 4239 c-24 -88 -28 -109 -19 -109 5 0 15 27 22 61 7 33 16 56
20 52 4 -4 18 -39 30 -76 12 -38 24 -67 26 -65 4 4 -43 154 -55 176 -6 11 -13
0 -24 -39z"/>
<path d="M4140 4270 c0 -5 5 -10 10 -10 6 0 10 5 10 10 0 6 -4 10 -10 10 -5 0
-10 -4 -10 -10z"/>
<path d="M4750 4250 c6 -11 13 -20 16 -20 2 0 0 9 -6 20 -6 11 -13 20 -16 20
-2 0 0 -9 6 -20z"/>
<path d="M3971 4234 c0 -11 3 -14 6 -6 3 7 2 16 -1 19 -3 4 -6 -2 -5 -13z"/>
<path d="M4046 4209 c-3 -8 -12 -48 -21 -89 -23 -106 -131 -431 -201 -605 -7
-19 -7 -19 9 -3 9 9 17 20 17 24 0 3 12 38 28 77 l27 70 8 -64 c4 -35 6 -124
3 -197 l-6 -134 39 52 c21 28 75 91 119 139 72 79 78 89 62 99 -15 9 -17 8
-13 -11 4 -18 3 -19 -6 -7 -9 13 -11 12 -11 -3 0 -23 -69 -109 -81 -101 -5 3
-9 20 -9 37 0 26 -15 102 -42 217 -1 8 -12 22 -23 31 -20 17 -20 18 -1 66 10
26 30 81 45 121 21 59 29 72 44 68 15 -4 16 -2 5 11 -14 17 -13 48 7 143 12
58 13 94 1 59z"/>
<path d="M2160 4155 c0 -8 4 -15 10 -15 5 0 7 7 4 15 -4 8 -8 15 -10 15 -2 0
-4 -7 -4 -15z"/>
<path d="M2030 4151 c0 -5 5 -13 10 -16 6 -3 10 -2 10 4 0 5 -4 13 -10 16 -5
3 -10 2 -10 -4z"/>
<path d="M5420 4134 c0 -6 65 -34 77 -34 9 1 -58 39 -69 40 -5 0 -8 -2 -8 -6z"/>
<path d="M4681 4115 c1 -19 18 -51 18 -35 0 8 -4 22 -9 30 -5 8 -9 11 -9 5z"/>
<path d="M2056 4091 c-3 -5 1 -11 9 -15 8 -3 15 -1 15 4 0 13 -18 22 -24 11z"/>
<path d="M3916 4085 c-9 -26 -7 -32 5 -12 6 10 9 21 6 23 -2 3 -7 -2 -11 -11z"/>
<path d="M2171 4075 c0 -11 4 -27 9 -35 9 -13 10 -13 9 0 0 8 -4 24 -9 35 l-9
20 0 -20z"/>
<path d="M4771 4064 c0 -11 3 -14 6 -6 3 7 2 16 -1 19 -3 4 -6 -2 -5 -13z"/>
<path d="M2445 4060 c-3 -5 -2 -10 4 -10 5 0 13 5 16 10 3 6 2 10 -4 10 -5 0
-13 -4 -16 -10z"/>
<path d="M4630 4049 c0 -6 -18 -49 -39 -95 -45 -95 -46 -114 -2 -26 44 87 61
132 50 132 -5 0 -9 -5 -9 -11z"/>
<path d="M4787 3990 c3 -30 9 -127 13 -215 4 -88 7 -133 8 -99 2 44 7 65 20
76 52 47 224 104 283 96 25 -4 26 -3 17 24 -10 29 -3 51 10 33 4 -6 16 -17 27
-25 19 -14 19 -14 6 3 -8 10 -26 27 -41 37 -29 21 -34 20 -270 -52 l-45 -14
-17 96 c-9 52 -14 70 -11 40z"/>
<path d="M2204 4016 c-10 -8 -15 -18 -11 -22 4 -4 15 0 24 9 22 21 12 31 -13
13z"/>
<path d="M2060 4004 c0 -14 3 -14 15 -4 8 7 15 14 15 16 0 2 -7 4 -15 4 -8 0
-15 -7 -15 -16z"/>
<path d="M2109 3973 c-11 -35 -12 -36 -26 -17 -14 18 -15 18 -8 -6 9 -36 38
-101 42 -96 2 2 -1 15 -8 28 -8 20 -7 34 5 69 l16 44 -5 -60 c-4 -55 -3 -56 5
-17 5 23 12 47 15 52 4 6 0 17 -9 25 -13 13 -16 11 -27 -22z"/>
<path d="M5140 3990 c6 -11 13 -20 16 -20 2 0 0 9 -6 20 -6 11 -13 20 -16 20
-2 0 0 -9 6 -20z"/>
<path d="M2229 3964 c-11 -30 -3 -46 11 -24 10 16 13 50 5 50 -3 0 -10 -12
-16 -26z"/>
<path d="M4050 3966 c-7 -14 -22 -26 -32 -28 -19 -3 -18 -5 6 -31 14 -15 26
-36 27 -45 0 -11 3 -12 6 -4 2 6 9 10 14 6 5 -3 9 2 9 11 0 9 -4 14 -9 11 -16
-10 -20 36 -4 52 19 19 28 6 37 -49 5 -31 1 -47 -19 -80 -23 -35 -28 -39 -42
-27 -15 12 -16 8 -10 -40 4 -32 2 -50 -3 -47 -6 4 -10 3 -10 -2 0 -4 14 -16
32 -26 28 -16 30 -16 17 -1 -10 13 -11 18 -2 21 8 3 5 11 -8 24 -25 25 -24 49
1 49 12 0 22 9 26 24 7 29 64 87 64 65 0 -8 -9 -33 -20 -56 -10 -24 -17 -43
-15 -43 9 0 43 75 50 110 7 34 7 35 -12 18 -27 -24 -33 -23 -33 10 0 29 -30
94 -47 99 -5 2 -15 -8 -23 -21z"/>
<path d="M5160 3957 c0 -5 11 -29 25 -54 13 -26 21 -50 16 -53 -4 -3 1 -18 12
-35 17 -27 18 -21 1 20 -19 48 142 23 270 -41 146 -74 178 -95 229 -148 110
-117 229 -308 210 -339 -3 -7 -23 -32 -42 -57 -20 -25 -27 -38 -17 -30 11 8
32 32 47 53 l28 39 7 -29 c3 -15 12 -41 19 -58 51 -118 93 -474 69 -594 -5
-23 -11 -30 -22 -26 -13 5 -13 3 -1 -12 8 -10 17 -20 20 -23 18 -14 49 -78 49
-101 0 -30 -45 -97 -82 -121 -14 -9 -30 -34 -37 -59 -30 -99 -194 -399 -219
-399 -4 0 -18 18 -32 40 -14 22 -28 40 -33 40 -4 0 3 -15 16 -32 13 -18 27
-38 31 -45 11 -20 -126 -94 -185 -100 -49 -4 -50 -3 -44 19 l8 23 -19 -23 -19
-23 -108 16 c-60 8 -131 21 -158 29 -36 11 -49 12 -49 3 1 -21 34 -72 49 -75
8 -2 26 -11 40 -21 108 -74 430 -44 529 49 78 73 205 291 267 455 60 158 100
409 90 565 -11 192 -52 397 -99 503 -14 32 -22 67 -20 87 3 29 2 31 -4 10 -8
-24 -9 -23 -37 27 -42 73 -170 240 -221 288 -37 35 -45 49 -55 105 -7 36 -19
74 -27 85 -13 19 -13 19 -6 -5 38 -127 34 -135 -38 -91 -139 84 -252 121 -372
121 -35 0 -67 5 -74 12 -7 7 -12 9 -12 5z"/>
<path d="M4172 3920 c0 -14 2 -19 5 -12 2 6 2 18 0 25 -3 6 -5 1 -5 -13z"/>
<path d="M4599 3854 c-1 -122 -9 -220 -23 -274 -7 -27 -9 -47 -5 -45 4 3 10
18 14 34 6 27 54 74 103 100 12 7 20 17 16 23 -4 6 -3 8 4 4 6 -3 14 -21 18
-39 4 -17 9 -27 11 -20 3 9 -39 121 -53 142 -2 2 -16 -6 -32 -18 -17 -12 -33
-21 -37 -21 -4 0 -5 40 -4 90 2 49 0 92 -4 96 -4 4 -7 -28 -8 -72z"/>
<path d="M2250 3840 c0 -5 5 -10 11 -10 5 0 7 5 4 10 -3 6 -8 10 -11 10 -2 0
-4 -4 -4 -10z"/>
<path d="M5840 3846 c0 -2 8 -10 18 -17 15 -13 16 -12 3 4 -13 16 -21 21 -21
13z"/>
<path d="M5727 3805 c9 -19 18 -33 21 -31 4 5 -26 66 -33 66 -3 0 3 -16 12
-35z"/>
<path d="M2295 3801 c-5 -18 -3 -28 11 -39 16 -12 16 -14 2 -9 -14 5 -16 0
-13 -31 1 -20 3 -48 4 -61 2 -41 19 -11 25 42 2 27 -1 64 -8 85 -13 36 -13 36
-21 13z"/>
<path d="M4548 3742 c-11 -88 -20 -97 -34 -32 l-12 55 -1 -45 c-1 -59 -16
-108 -40 -134 -12 -13 -21 -43 -26 -82 -6 -59 -6 -61 22 -79 15 -10 38 -29 50
-44 15 -16 21 -19 17 -8 -3 9 1 35 10 58 9 22 12 38 7 35 -5 -4 -12 0 -14 6
-3 7 -6 1 -6 -14 -2 -55 -10 -60 -47 -32 -39 30 -39 32 7 147 l28 72 1 -65 c0
-49 3 -61 11 -47 14 24 41 199 37 239 -2 24 -5 15 -10 -30z"/>
<path d="M5919 3734 c13 -21 32 -59 42 -84 10 -25 18 -38 18 -30 1 21 -54 136
-70 146 -7 4 -3 -10 10 -32z"/>
<path d="M3728 3693 c-8 -26 -19 -47 -25 -46 -6 1 -9 -6 -6 -16 3 -11 -3 -32
-13 -47 -16 -27 -16 -28 0 -13 18 16 71 157 63 166 -3 3 -12 -17 -19 -44z"/>
<path d="M2070 3721 c0 -5 5 -13 10 -16 6 -3 10 -2 10 4 0 5 -4 13 -10 16 -5
3 -10 2 -10 -4z"/>
<path d="M2062 3655 c-1 -22 -5 -58 -8 -80 -4 -32 -3 -36 6 -23 6 10 9 45 7
80 -2 40 -4 48 -5 23z"/>
<path d="M2419 3667 c8 -10 28 -28 45 -40 23 -16 27 -17 17 -4 -8 10 -28 28
-45 40 -23 16 -27 17 -17 4z"/>
<path d="M5262 3655 c0 -16 2 -22 5 -12 2 9 2 23 0 30 -3 6 -5 -1 -5 -18z"/>
<path d="M2327 3643 c-4 -3 -7 -11 -7 -17 0 -6 5 -5 12 2 6 6 9 14 7 17 -3 3
-9 2 -12 -2z"/>
<path d="M2366 3637 c3 -10 9 -15 12 -12 3 3 0 11 -7 18 -10 9 -11 8 -5 -6z"/>
<path d="M3762 3605 c0 -16 2 -22 5 -12 2 9 2 23 0 30 -3 6 -5 -1 -5 -18z"/>
<path d="M5273 3585 c0 -22 2 -30 4 -17 2 12 2 30 0 40 -3 9 -5 -1 -4 -23z"/>
<path d="M2506 3601 c7 -8 9 -62 6 -164 -2 -103 1 -180 10 -239 13 -78 13 -88
-1 -90 -9 -2 13 -17 49 -34 36 -18 67 -30 69 -28 2 2 -2 51 -9 109 -13 108 -9
351 7 366 4 4 25 0 47 -8 l38 -16 -6 -71 c-3 -39 -2 -89 3 -111 7 -33 8 -24 8
50 0 50 3 99 7 111 5 18 -2 24 -56 49 -35 15 -90 41 -123 58 -33 16 -55 24
-49 18z"/>
<path d="M4275 3558 c-28 -29 -72 -69 -97 -88 -60 -44 -73 -72 -15 -30 51 36
186 170 172 170 -6 0 -33 -24 -60 -52z"/>
<path d="M2150 3570 c-18 -42 -9 -45 11 -4 9 19 13 34 9 34 -4 0 -13 -14 -20
-30z"/>
<path d="M2200 3590 c0 -5 4 -10 9 -10 6 0 13 5 16 10 3 6 -1 10 -9 10 -9 0
-16 -4 -16 -10z"/>
<path d="M4061 3584 c0 -11 3 -14 6 -6 3 7 2 16 -1 19 -3 4 -6 -2 -5 -13z"/>
<path d="M2312 3550 c12 -16 23 -30 25 -30 2 0 -3 14 -12 30 -9 17 -20 30 -26
30 -5 0 0 -13 13 -30z"/>
<path d="M2433 3572 c-11 -7 -57 -112 -51 -118 2 -2 17 26 34 61 16 36 30 65
29 65 0 0 -5 -4 -12 -8z"/>
<path d="M3639 3563 c-13 -16 -12 -17 4 -4 16 13 21 21 13 21 -2 0 -10 -8 -17
-17z"/>
<path d="M5992 3550 c0 -14 2 -19 5 -12 2 6 2 18 0 25 -3 6 -5 1 -5 -13z"/>
<path d="M5010 3530 c-12 -16 -19 -30 -16 -30 2 0 14 14 26 30 12 17 19 30 16
30 -2 0 -14 -13 -26 -30z"/>
<path d="M1320 3453 c-25 -47 -46 -90 -48 -97 -6 -22 61 89 80 132 33 74 15
55 -32 -35z"/>
<path d="M3649 3523 c-13 -16 -12 -17 4 -4 16 13 21 21 13 21 -2 0 -10 -8 -17
-17z"/>
<path d="M5277 3423 c-4 -60 -18 -150 -31 -201 -13 -52 -20 -90 -16 -85 19 19
52 185 57 285 3 60 4 108 1 108 -3 0 -8 -48 -11 -107z"/>
<path d="M3752 3500 c0 -14 2 -19 5 -12 2 6 2 18 0 25 -3 6 -5 1 -5 -13z"/>
<path d="M6002 3495 c0 -16 2 -22 5 -12 2 9 2 23 0 30 -3 6 -5 -1 -5 -18z"/>
<path d="M1582 3458 c-31 -98 -23 -229 19 -315 28 -58 82 -119 123 -139 l31
-15 -22 19 c-12 11 -37 32 -54 46 -17 15 -42 49 -55 76 -26 55 -29 70 -13 70
6 0 30 14 55 30 l44 31 61 -66 c92 -98 92 -78 0 24 -93 105 -125 150 -155 224
l-22 54 -12 -39z m68 -119 c33 -48 39 -63 30 -74 -17 -20 -80 -58 -86 -52 -10
10 -17 154 -9 193 7 35 8 37 16 16 5 -12 27 -50 49 -83z"/>
<path d="M2415 3479 c-4 -6 -5 -12 -2 -15 2 -3 7 2 10 11 7 17 1 20 -8 4z"/>
<path d="M3730 3405 c-7 -36 -10 -68 -8 -70 3 -3 10 25 17 61 6 37 10 68 8 71
-3 2 -10 -26 -17 -62z"/>
<path d="M3837 3433 c-4 -3 -7 -17 -7 -30 0 -13 -9 -61 -19 -106 -11 -45 -27
-120 -36 -167 -10 -47 -26 -107 -36 -135 -24 -62 -24 -68 -1 -30 25 40 42 91
48 140 3 22 16 85 28 140 25 105 40 195 33 195 -2 0 -7 -3 -10 -7z"/>
<path d="M3768 3364 c-15 -37 -26 -70 -24 -71 7 -7 57 107 54 123 -1 9 -15
-14 -30 -52z"/>
<path d="M4386 3367 c-24 -35 -24 -39 -6 -22 24 22 44 54 38 61 -3 2 -17 -15
-32 -39z"/>
<path d="M4869 3393 c-13 -16 -12 -17 4 -4 9 7 17 15 17 17 0 8 -8 3 -21 -13z"/>
<path d="M2950 3396 c0 -2 7 -7 16 -10 8 -3 12 -2 9 4 -6 10 -25 14 -25 6z"/>
<path d="M3068 3389 c-17 -10 -14 -39 4 -39 5 0 6 5 3 10 -4 6 -1 17 5 25 14
17 12 18 -12 4z"/>
<path d="M4040 3349 c-25 -23 -45 -49 -46 -59 -1 -10 -13 -33 -27 -51 -82
-109 -207 -431 -225 -579 -13 -108 8 -228 54 -297 15 -23 44 -32 44 -13 0 5
-6 9 -12 7 -7 -1 -21 14 -30 34 -15 29 -16 42 -7 67 6 18 16 32 23 32 7 0 22
28 35 63 21 60 21 65 5 102 -21 51 -14 146 14 196 36 64 99 231 126 336 26 98
53 163 68 163 4 0 12 9 18 20 14 27 12 26 -40 -21z m-200 -465 c-12 -55 -32
-164 -46 -244 -14 -79 -27 -146 -29 -148 -2 -2 -6 16 -10 40 -9 59 18 214 62
350 19 61 36 108 39 105 3 -2 -5 -49 -16 -103z"/>
<path d="M2100 3375 c0 -28 47 -79 107 -118 102 -65 122 -77 130 -77 4 0 -24
20 -61 45 -38 25 -72 45 -76 45 -8 0 -62 58 -83 90 -10 13 -17 20 -17 15z"/>
<path d="M4541 3323 c7 -12 15 -20 18 -17 3 2 -3 12 -13 22 -17 16 -18 16 -5
-5z"/>
<path d="M2072 3315 c0 -11 4 -31 8 -45 6 -20 8 -21 8 -5 0 11 -4 31 -8 45 -6
20 -8 21 -8 5z"/>
<path d="M2990 3309 c0 -8 15 -23 33 -33 31 -18 32 -18 12 0 -11 11 -26 25
-32 33 -11 13 -13 13 -13 0z"/>
<path d="M3969 3273 c-13 -16 -12 -17 4 -4 9 7 17 15 17 17 0 8 -8 3 -21 -13z"/>
<path d="M2430 3264 c0 -10 5 -26 10 -34 8 -11 9 -7 4 15 -8 37 -14 45 -14 19z"/>
<path d="M4577 3249 c4 -13 8 -18 11 -10 2 7 -1 18 -6 23 -8 8 -9 4 -5 -13z"/>
<path d="M3710 3240 c-6 -11 -8 -20 -6 -20 3 0 10 9 16 20 6 11 8 20 6 20 -3
0 -10 -9 -16 -20z"/>
<path d="M5470 3240 c-19 -11 -30 -19 -25 -19 6 0 26 8 45 19 19 11 31 19 25
19 -5 0 -26 -8 -45 -19z"/>
<path d="M2120 3234 c0 -6 7 -19 15 -30 8 -10 14 -14 14 -9 0 6 -6 19 -14 29
-8 11 -15 15 -15 10z"/>
<path d="M5365 3200 c-13 -6 -15 -9 -5 -9 8 0 22 4 30 9 18 12 2 12 -25 0z"/>
<path d="M5799 3183 c-13 -15 -12 -15 9 -4 23 12 28 21 13 21 -5 0 -15 -7 -22
-17z"/>
<path d="M1490 3181 c0 -6 4 -13 10 -16 6 -3 7 1 4 9 -7 18 -14 21 -14 7z"/>
<path d="M2167 3149 c10 -17 24 -36 32 -42 8 -7 2 7 -14 31 -32 49 -45 57 -18
11z"/>
<path d="M4690 3140 c-7 -17 -10 -33 -8 -36 3 -3 11 9 17 27 6 18 9 34 7 36
-2 2 -9 -10 -16 -27z"/>
<path d="M3117 3116 c-15 -19 -34 -42 -43 -51 -13 -12 -14 -19 -5 -28 6 -6 11
-16 11 -21 0 -6 -20 12 -45 40 -54 62 -91 74 -107 35 -6 -14 -11 -78 -11 -141
l-1 -115 43 -90 c117 -243 140 -312 141 -406 0 -34 -7 -57 -26 -85 l-26 -39
25 24 c17 15 30 43 38 80 7 31 18 63 26 72 7 8 13 21 13 27 0 7 5 12 11 12 7
0 8 -7 4 -17 -25 -66 -10 -155 40 -234 59 -93 59 -95 46 -139 -6 -22 -16 -40
-22 -40 -5 0 -40 -23 -76 -50 -67 -50 -140 -80 -198 -80 -17 0 -54 11 -81 25
-27 14 -50 25 -51 25 -7 0 -1 -33 13 -78 13 -40 30 -62 83 -110 79 -70 116
-138 131 -237 6 -38 11 -77 13 -85 1 -8 17 -40 35 -71 44 -77 51 -120 34 -199
l-14 -66 56 -74 c70 -93 116 -183 116 -227 0 -40 -9 -41 -40 -8 -13 14 -28 25
-34 25 -6 0 13 -24 40 -52 66 -68 143 -171 171 -228 13 -25 30 -80 39 -122 9
-43 20 -76 24 -73 10 6 -22 150 -40 185 -7 14 -30 51 -52 82 -33 49 -38 64
-38 113 0 34 11 88 27 138 24 72 27 99 28 222 l1 140 46 99 c32 68 45 107 42
125 -8 38 20 161 49 217 30 58 69 98 117 118 36 15 36 15 49 108 7 51 21 124
30 161 10 37 13 63 8 58 -6 -6 -20 -48 -31 -93 -20 -77 -23 -83 -51 -89 -56
-12 -131 -9 -178 7 -61 21 -79 54 -85 154 -4 72 -2 78 37 157 42 82 47 108 37
173 l-6 35 28 -47 c15 -27 32 -48 38 -48 7 0 21 19 31 42 l20 42 7 -48 c4 -27
12 -58 17 -70 8 -17 9 -16 4 9 -2 17 -7 89 -10 160 l-6 130 40 135 c22 74 38
136 36 138 -2 3 -7 -7 -11 -22 -3 -14 -10 -26 -15 -26 -5 0 -9 -12 -9 -27 0
-21 -3 -24 -12 -15 -9 9 -8 18 2 39 15 34 25 193 16 258 -6 34 -11 45 -21 41
-8 -3 -17 -1 -20 4 -8 12 -123 -58 -130 -79 -3 -10 3 -33 12 -52 13 -24 19
-61 20 -129 1 -52 5 -112 9 -132 9 -55 -12 -102 -82 -183 l-64 -73 0 -144 c-1
-100 -6 -167 -18 -223 l-18 -80 -17 26 c-9 14 -19 41 -22 60 l-5 34 10 -32 c6
-18 12 -33 14 -33 1 0 1 35 -2 78 -3 66 9 177 33 292 4 17 -1 13 -14 -13 -13
-28 -20 -34 -24 -23 -8 19 -33 21 -40 4 -3 -7 -6 -1 -6 14 -1 17 5 28 17 31 9
3 -2 5 -25 6 -30 1 -49 7 -62 22 -31 34 -35 38 -68 65 -42 33 -60 89 -44 135
8 25 8 41 0 67 -14 43 -7 160 12 189 11 19 11 27 -4 58 l-18 37 36 50 c41 56
42 77 2 24z m191 -774 c14 11 15 10 9 -5 -4 -10 -7 -42 -7 -70 l-1 -52 -14 34
c-20 44 -31 124 -15 98 10 -15 14 -16 28 -5z m-21 -144 c-3 -8 -6 -5 -6 6 -1
11 2 17 5 13 3 -3 4 -12 1 -19z m-97 -263 c0 -2 -10 -9 -22 -15 -22 -11 -22
-10 -4 4 21 17 26 19 26 11z m147 -47 c-3 -7 -5 -2 -5 12 0 14 2 19 5 13 2 -7
2 -19 0 -25z m-169 -205 c16 -28 15 -30 -7 -36 -25 -6 -35 41 -24 115 l7 53 7
-55 c3 -31 11 -65 17 -77z m241 -55 c1 -27 -13 -46 -22 -30 -3 4 -8 41 -11 82
l-6 75 19 -50 c11 -27 20 -62 20 -77z m-159 -60 c0 -10 11 -20 26 -24 14 -4
22 -10 17 -15 -5 -5 -18 -6 -30 -3 -21 6 -33 30 -33 69 0 17 2 17 10 5 5 -8
10 -23 10 -32z"/>
<path d="M2135 3110 c9 -16 18 -30 21 -30 2 0 -2 14 -11 30 -9 17 -18 30 -21
30 -2 0 2 -13 11 -30z"/>
<path d="M3175 3093 c-3 -15 -11 -30 -16 -34 -13 -8 -1 -36 18 -43 13 -5 14
-4 4 8 -10 12 -10 23 -1 51 7 20 10 38 7 41 -2 3 -8 -8 -12 -23z"/>
<path d="M3411 3115 c0 -5 6 -21 14 -35 8 -14 14 -20 14 -15 0 6 -6 21 -14 35
-8 14 -14 21 -14 15z"/>
<path d="M4430 3072 c-31 -15 -69 -32 -85 -39 l-30 -12 30 6 c40 8 131 48 139
62 9 14 12 15 -54 -17z"/>
<path d="M1922 3065 c0 -16 2 -22 5 -12 2 9 2 23 0 30 -3 6 -5 -1 -5 -18z"/>
<path d="M1960 3045 c-13 -14 -30 -23 -37 -21 -7 3 -13 1 -13 -4 0 -17 24 -11
63 15 40 27 45 35 24 35 -8 0 -24 -11 -37 -25z"/>
<path d="M2290 3060 c8 -5 20 -10 25 -10 6 0 3 5 -5 10 -8 5 -19 10 -25 10 -5
0 -3 -5 5 -10z"/>
<path d="M5144 2992 c-65 -97 -94 -155 -94 -184 1 -14 8 -2 20 31 11 29 37 76
58 105 40 51 76 115 70 121 -2 2 -26 -31 -54 -73z"/>
<path d="M5715 3034 c-53 -18 -61 -23 -30 -18 37 5 132 42 110 42 -5 1 -41
-10 -80 -24z"/>
<path d="M2447 3031 c3 -12 11 -17 19 -14 8 3 14 4 14 2 0 -2 7 -22 15 -44 9
-25 14 -32 15 -19 0 23 -38 85 -57 91 -7 3 -9 -3 -6 -16z"/>
<path d="M4786 2938 c-10 -57 -27 -125 -37 -153 -24 -63 -23 -70 2 -22 11 20
21 37 24 37 2 0 16 -20 31 -45 25 -44 26 -47 9 -65 -10 -11 -16 -22 -13 -25 3
-3 11 1 18 10 17 21 27 19 58 -10 36 -34 101 -65 149 -71 33 -4 31 -2 -23 19
-108 41 -167 91 -194 161 -5 14 -15 26 -21 26 -12 0 -10 25 11 153 6 37 10 72
8 77 -2 6 -12 -36 -22 -92z"/>
<path d="M790 3020 c-8 -5 -10 -10 -5 -10 6 0 17 5 25 10 8 5 11 10 5 10 -5 0
-17 -5 -25 -10z"/>
<path d="M1846 3001 c-4 -5 3 -7 14 -4 23 6 26 13 6 13 -8 0 -17 -4 -20 -9z"/>
<path d="M2600 3008 c0 -3 14 -17 31 -34 31 -29 31 -29 24 -4 -4 14 -8 26 -9
26 -4 4 -46 15 -46 12z"/>
<path d="M5525 3000 l-20 -9 20 1 c11 0 31 4 45 8 l25 8 -25 0 c-14 0 -34 -3
-45 -8z"/>
<path d="M2800 2995 c0 -5 5 -17 10 -25 5 -8 10 -10 10 -5 0 6 -5 17 -10 25
-5 8 -10 11 -10 5z"/>
<path d="M1940 2983 c-8 -2 -21 -7 -29 -9 -8 -2 -12 -7 -9 -9 3 -3 22 1 44 9
35 13 30 21 -6 9z"/>
<path d="M1845 2960 c-19 -8 -19 -9 3 -9 12 -1 22 4 22 9 0 6 -1 10 -2 9 -2 0
-12 -4 -23 -9z"/>
<path d="M2240 2966 c0 -2 8 -10 18 -17 15 -13 16 -12 3 4 -13 16 -21 21 -21
13z"/>
<path d="M640 2949 c0 -5 -5 -7 -12 -3 -6 4 -8 3 -5 -4 4 -5 16 -8 27 -5 11 3
17 9 14 14 -7 12 -24 11 -24 -2z"/>
<path d="M3964 2935 c-10 -8 -14 -15 -8 -15 6 0 17 7 24 15 16 19 9 19 -16 0z"/>
<path d="M2185 2923 c17 -11 39 -22 50 -25 11 -3 29 -9 40 -12 11 -4 0 4 -25
17 -25 14 -56 28 -70 31 -23 7 -22 6 5 -11z"/>
<path d="M2828 2925 c6 -11 27 -36 48 -55 l38 -35 -38 45 c-53 62 -60 68 -48
45z"/>
<path d="M5287 2879 l-42 -41 48 38 c26 21 47 40 47 41 0 10 -16 -2 -53 -38z"/>
<path d="M2826 2880 c6 -8 24 -33 41 -55 46 -60 84 -183 93 -302 5 -56 5 -114
1 -130 -6 -21 -9 -8 -14 57 -3 47 -13 107 -23 134 -20 58 -64 139 -72 132 -2
-3 -1 -11 5 -18 11 -15 47 -108 61 -158 20 -66 22 -134 8 -193 -9 -41 -10 -57
-2 -54 6 2 12 16 14 32 3 20 6 24 12 15 6 -9 12 0 20 29 18 69 -1 247 -39 356
-25 71 -40 98 -73 130 -23 22 -37 33 -32 25z"/>
<path d="M1180 2863 c0 -28 111 -125 126 -110 3 3 -4 8 -15 12 -12 3 -21 10
-21 14 0 4 -11 13 -25 19 -14 6 -34 26 -45 44 -11 18 -20 28 -20 21z"/>
<path d="M5114 2836 c3 -21 17 -56 31 -78 26 -39 106 -98 134 -98 8 0 -5 13
-30 29 -61 39 -96 79 -120 137 l-20 49 5 -39z"/>
<path d="M5330 2850 c0 -5 7 -7 15 -4 8 3 29 1 47 -5 30 -10 31 -9 14 4 -22
17 -76 20 -76 5z"/>
<path d="M2351 2846 c10 -9 69 -36 69 -32 0 6 -55 36 -66 36 -4 0 -5 -2 -3 -4z"/>
<path d="M2806 2786 c20 -31 39 -55 41 -52 5 5 -54 93 -68 102 -6 3 6 -19 27
-50z"/>
<path d="M4355 2830 c9 -15 114 -66 150 -73 29 -6 29 -6 5 5 -14 6 -56 26 -93
44 -37 19 -65 29 -62 24z"/>
<path d="M4049 2816 c-20 -7 -50 -22 -67 -34 -31 -22 -82 -112 -82 -143 0 -10
-4 -21 -10 -24 -5 -3 -10 -23 -10 -43 l1 -37 14 25 c8 14 14 39 15 57 0 17 5
44 11 60 23 62 118 132 179 133 14 0 32 5 40 10 23 15 -47 12 -91 -4z"/>
<path d="M5316 2800 c-9 -17 -28 -33 -42 -36 -29 -8 -27 -22 7 -42 23 -14 23
-13 4 2 -17 14 -18 18 -5 26 8 5 18 10 22 10 9 0 41 60 36 66 -2 2 -12 -10
-22 -26z"/>
<path d="M4235 2798 c33 -24 176 -100 180 -96 5 4 -151 94 -180 104 l-20 6 20
-14z"/>
<path d="M2481 2784 c6 -8 18 -14 26 -14 20 0 8 16 -17 23 -17 4 -19 3 -9 -9z"/>
<path d="M2505 2723 c11 -3 33 -17 49 -31 26 -24 28 -25 17 -5 -13 26 -42 44
-68 42 -15 -1 -15 -2 2 -6z"/>
<path d="M2652 2686 c51 -47 83 -151 75 -242 -4 -35 -11 -73 -17 -84 -7 -13
-7 -20 -1 -20 28 0 36 106 19 258 -3 25 -83 122 -101 122 -7 0 5 -15 25 -34z"/>
<path d="M5532 2710 c-19 -4 -39 -13 -45 -20 -10 -10 -8 -11 8 -5 43 16 122
27 170 22 32 -4 43 -2 30 3 -25 11 -119 11 -163 0z"/>
<path d="M1788 2703 c12 -2 32 -2 45 0 12 2 2 4 -23 4 -25 0 -35 -2 -22 -4z"/>
<path d="M1653 2693 c9 -2 25 -2 35 0 9 3 1 5 -18 5 -19 0 -27 -2 -17 -5z"/>
<path d="M2775 2673 c35 -79 48 -136 49 -205 1 -81 14 -100 37 -57 8 16 7 36
-7 87 -19 72 -68 192 -79 192 -4 0 -4 -8 0 -17z"/>
<path d="M4640 2678 c-19 -6 -64 -8 -100 -5 -39 3 -55 2 -40 -3 14 -4 37 -8
53 -9 29 -1 31 -7 18 -64 -12 -52 1 -37 15 16 l10 42 76 0 c88 0 106 -11 163
-100 34 -53 51 -111 65 -221 l9 -69 -3 90 c-4 117 -33 192 -98 258 -27 27 -60
50 -78 53 -17 4 -33 11 -36 15 -6 10 -8 10 -54 -3z"/>
<path d="M5845 2660 c49 -16 91 -28 93 -26 6 7 -101 43 -143 49 -23 4 -2 -6
50 -23z"/>
<path d="M361 2654 c0 -11 3 -14 6 -6 3 7 2 16 -1 19 -3 4 -6 -2 -5 -13z"/>
<path d="M2060 2645 c14 -8 30 -14 35 -14 6 0 -1 6 -15 14 -14 8 -29 14 -35
14 -5 0 1 -6 15 -14z"/>
<path d="M352 2590 c0 -14 2 -19 5 -12 2 6 2 18 0 25 -3 6 -5 1 -5 -13z"/>
<path d="M5170 2581 c8 -6 28 -11 44 -11 39 0 31 6 -19 14 -29 5 -36 4 -25 -3z"/>
<path d="M1170 2537 c0 -8 120 -50 126 -44 3 3 -19 13 -48 22 -29 10 -59 20
-65 23 -7 2 -13 2 -13 -1z"/>
<path d="M4546 2525 c-9 -26 -7 -32 5 -12 6 10 9 21 6 23 -2 3 -7 -2 -11 -11z"/>
<path d="M4908 2533 c7 -3 16 -2 19 1 4 3 -2 6 -13 5 -11 0 -14 -3 -6 -6z"/>
<path d="M5025 2506 c28 -7 70 -15 95 -19 l45 -6 -40 13 c-22 7 -65 16 -95 19
l-55 5 50 -12z"/>
<path d="M1350 2470 c8 -5 20 -10 25 -10 6 0 3 5 -5 10 -8 5 -19 10 -25 10 -5
0 -3 -5 5 -10z"/>
<path d="M399 2452 c6 -12 16 -24 22 -28 8 -4 8 -1 0 14 -6 12 -16 24 -22 28
-8 4 -8 1 0 -14z"/>
<path d="M1469 2422 c36 -35 43 -39 35 -19 -2 7 -19 21 -37 32 l-32 19 34 -32z"/>
<path d="M4565 2430 c10 -11 20 -20 23 -20 3 0 -3 9 -13 20 -10 11 -20 20 -23
20 -3 0 3 -9 13 -20z"/>
<path d="M5130 2440 c35 -24 54 -31 30 -11 -14 11 -29 21 -35 21 -5 0 -3 -5 5
-10z"/>
<path d="M4516 2425 c-9 -26 -7 -32 5 -12 6 10 9 21 6 23 -2 3 -7 -2 -11 -11z"/>
<path d="M5911 2411 c-14 -4 -26 -12 -29 -19 -4 -14 21 -7 53 15 21 14 15 15
-24 4z"/>
<path d="M2016 2401 c-4 -5 -39 -15 -79 -22 -39 -7 -74 -13 -75 -15 -2 -1 1
-19 8 -39 12 -35 14 -37 48 -32 l35 6 -6 -57 c-8 -73 -23 -121 -45 -150 -17
-22 -18 -20 -16 80 l2 103 -8 -90 c-5 -49 -16 -117 -26 -150 -26 -89 -94 -154
-130 -124 -12 9 -13 9 -9 -3 3 -8 -6 -23 -23 -35 -30 -22 -107 -125 -134 -178
-9 -16 -19 -46 -23 -65 -4 -19 -17 -46 -30 -60 -12 -14 -30 -38 -40 -55 -14
-24 -9 -21 26 15 29 31 47 60 56 94 8 27 28 74 45 105 36 64 124 161 145 161
24 0 90 38 97 56 6 15 8 15 24 2 11 -10 26 -12 42 -8 l25 7 -27 8 c-41 11 -50
26 -32 60 8 16 23 34 33 41 10 7 24 27 31 44 7 16 15 30 19 30 4 0 12 -19 18
-43 15 -56 69 -136 112 -164 35 -24 85 -30 111 -13 11 7 1 10 -34 10 l-48 0
32 30 c22 21 30 35 26 50 -3 11 -9 29 -12 40 -11 40 6 19 36 -42 47 -98 28
-38 -43 132 -35 85 -67 164 -71 174 -3 10 -9 17 -11 14 -3 -3 15 -56 40 -119
25 -63 45 -115 45 -116 0 -2 -11 -3 -25 -3 -29 0 -25 -26 6 -35 13 -4 19 -16
19 -34 0 -37 -17 -51 -62 -51 -34 0 -40 4 -64 47 -37 61 -58 142 -42 160 6 7
8 16 4 20 -3 3 -6 1 -6 -5 0 -7 -4 -12 -9 -12 -5 0 -9 32 -8 70 l2 70 35 10
c59 17 64 23 46 59 -18 33 -22 36 -30 22z"/>
<path d="M4598 2375 c5 -29 8 -31 15 -11 3 8 0 19 -7 25 -10 9 -12 6 -8 -14z"/>
<path d="M1768 2383 c12 -2 30 -2 40 0 9 3 -1 5 -23 4 -22 0 -30 -2 -17 -4z"/>
<path d="M3673 2355 c4 -16 9 -48 13 -70 6 -31 9 -36 14 -20 4 11 1 40 -6 63
-15 52 -29 70 -21 27z"/>
<path d="M454 2328 l-19 -23 23 19 c21 18 27 26 19 26 -2 0 -12 -10 -23 -22z"/>
<path d="M1586 2329 c-9 -13 -19 -18 -27 -13 -9 5 -10 2 -6 -10 4 -10 7 -22 7
-27 0 -17 49 -10 54 9 2 9 7 27 11 40 8 29 -18 30 -39 1z"/>
<path d="M2373 2305 c0 -22 2 -30 4 -17 2 12 2 30 0 40 -3 9 -5 -1 -4 -23z"/>
<path d="M4611 2324 c0 -11 3 -14 6 -6 3 7 2 16 -1 19 -3 4 -6 -2 -5 -13z"/>
<path d="M763 2323 c9 -2 25 -2 35 0 9 3 1 5 -18 5 -19 0 -27 -2 -17 -5z"/>
<path d="M828 2313 c6 -2 18 -2 25 0 6 3 1 5 -13 5 -14 0 -19 -2 -12 -5z"/>
<path d="M2831 2308 c-2 -23 -68 -91 -81 -83 -5 3 -10 2 -10 -3 0 -17 12 -21
35 -12 19 7 25 5 30 -10 3 -11 1 -28 -5 -37 -9 -15 -10 -13 -5 11 l6 30 -19
-24 c-17 -21 -18 -27 -5 -84 18 -82 21 -88 34 -80 8 4 8 9 1 13 -6 4 -16 28
-21 53 -10 44 -9 49 13 71 26 26 41 91 33 143 -2 16 -5 21 -6 12z"/>
<path d="M403 2280 c-13 -16 -25 -36 -29 -46 -5 -16 -4 -16 7 1 6 11 21 30 32
42 11 13 19 25 16 27 -2 2 -14 -9 -26 -24z"/>
<path d="M686 2288 c-37 -57 -84 -198 -66 -198 4 0 10 17 12 38 3 20 22 70 41
110 36 71 41 93 13 50z"/>
<path d="M4960 2305 c0 -7 81 -47 86 -43 2 3 -17 14 -41 26 -25 12 -45 20 -45
17z"/>
<path d="M1647 2293 c-12 -11 -8 -23 8 -23 8 0 15 7 15 15 0 16 -12 20 -23 8z"/>
<path d="M4584 2265 c-8 -20 -21 -38 -29 -41 -7 -3 -16 -12 -19 -20 -5 -12 1
-11 25 3 47 28 99 73 99 86 -1 8 -5 6 -13 -3 -7 -8 -21 -22 -31 -30 -18 -14
-19 -13 -12 13 9 38 -2 34 -20 -8z"/>
<path d="M2025 2270 c-3 -5 -1 -10 4 -10 6 0 11 5 11 10 0 6 -2 10 -4 10 -3 0
-8 -4 -11 -10z"/>
<path d="M2120 2273 c0 -21 44 -94 65 -107 14 -9 25 -13 25 -9 0 5 -9 14 -21
21 -11 7 -29 33 -39 57 -17 41 -30 57 -30 38z"/>
<path d="M5436 2262 c-6 -17 -1 -32 16 -58 23 -34 50 -42 78 -24 11 7 6 8 -16
4 -37 -7 -55 11 -64 64 -6 33 -7 35 -14 14z"/>
<path d="M3710 2261 c0 -6 4 -13 10 -16 6 -3 7 1 4 9 -7 18 -14 21 -14 7z"/>
<path d="M1021 2257 c2 -2 36 -20 74 -41 39 -20 61 -29 50 -20 -22 17 -110 64
-121 64 -4 0 -5 -1 -3 -3z"/>
<path d="M2903 2243 c21 -24 23 -44 13 -93 -7 -28 -6 -33 5 -23 7 7 13 34 13
59 1 39 -3 49 -24 62 -25 16 -25 16 -7 -5z"/>
<path d="M3806 2210 c-10 -25 -22 -40 -33 -40 -13 0 -15 -2 -5 -8 7 -5 10 -17
7 -28 -3 -10 9 10 25 45 17 35 29 65 27 68 -3 2 -12 -14 -21 -37z"/>
<path d="M2326 2169 c-11 -11 -15 -19 -9 -19 12 0 38 28 32 34 -2 2 -13 -5
-23 -15z"/>
<path d="M4900 2161 c0 -17 -8 -52 -18 -79 -23 -60 -123 -204 -165 -236 -17
-14 -28 -29 -23 -33 4 -4 31 17 59 47 57 62 53 49 -6 -22 -41 -49 -102 -83
-89 -50 6 16 4 16 -19 0 -14 -9 -36 -18 -50 -21 -13 -2 -1 -5 26 -5 80 0 106
12 150 74 22 30 40 60 40 67 1 21 66 137 77 137 4 0 10 -21 13 -47 8 -63 15
-96 19 -92 2 2 -1 41 -8 86 -9 63 -9 89 0 115 16 41 17 75 4 83 -6 4 -10 -7
-10 -24z"/>
<path d="M2013 2160 c-34 -14 -28 -21 7 -9 17 6 30 13 30 15 0 6 -12 4 -37 -6z"/>
<path d="M4938 2163 c7 -3 16 -2 19 1 4 3 -2 6 -13 5 -11 0 -14 -3 -6 -6z"/>
<path d="M4978 2163 c6 -2 18 -2 25 0 6 3 1 5 -13 5 -14 0 -19 -2 -12 -5z"/>
<path d="M1143 2133 c9 -2 25 -2 35 0 9 3 1 5 -18 5 -19 0 -27 -2 -17 -5z"/>
<path d="M1270 2106 c0 -9 39 -86 44 -86 3 0 12 -3 20 -6 12 -5 15 -2 10 10
-3 8 -11 14 -17 13 -6 -1 -19 13 -28 31 -18 36 -29 50 -29 38z"/>
<path d="M1172 2078 c7 -15 15 -23 17 -17 2 6 -4 18 -13 27 -15 15 -15 15 -4
-10z"/>
<path d="M1801 2054 c-24 -40 -29 -69 -6 -37 16 22 37 73 31 73 -2 0 -13 -16
-25 -36z"/>
<path d="M4425 2044 c-38 -18 -74 -32 -80 -30 -5 1 -25 -27 -42 -63 -41 -83
-64 -141 -57 -141 3 0 10 14 16 31 10 30 12 31 56 25 45 -6 47 -5 98 48 38 39
57 69 68 107 9 29 15 53 13 54 -1 1 -33 -13 -72 -31z m32 -41 c5 -15 -65 -93
-83 -93 -8 0 -23 -5 -33 -12 -10 -6 -26 -8 -35 -5 -15 6 -15 9 1 41 9 19 20
33 24 31 3 -3 6 3 5 12 -1 10 9 17 28 20 17 2 37 8 45 13 20 12 43 9 48 -7z"/>
<path d="M920 2053 c1 -4 17 -18 37 -31 26 -16 32 -18 22 -6 -12 15 -12 16 6
11 11 -3 39 -11 62 -17 27 -7 52 -22 69 -43 l26 -32 -19 34 c-19 35 -73 62
-154 76 -18 3 -36 8 -41 11 -4 3 -8 2 -8 -3z"/>
<path d="M4992 1970 c40 -33 77 -60 82 -60 5 0 -24 27 -65 60 -40 33 -77 60
-82 60 -5 0 24 -27 65 -60z"/>
<path d="M5502 1980 c0 -14 2 -19 5 -12 2 6 2 18 0 25 -3 6 -5 1 -5 -13z"/>
<path d="M1700 1960 c-8 -5 -10 -10 -5 -10 6 0 17 5 25 10 8 5 11 10 5 10 -5
0 -17 -5 -25 -10z"/>
<path d="M1777 1963 c-4 -3 -7 -11 -7 -17 0 -6 5 -5 12 2 6 6 9 14 7 17 -3 3
-9 2 -12 -2z"/>
<path d="M1429 1932 c13 -9 43 -28 65 -41 l41 -23 -45 40 c-25 23 -54 41 -65
41 -18 0 -18 -1 4 -17z"/>
<path d="M5143 1940 c-13 -5 -23 -11 -23 -13 0 -8 50 5 56 14 6 11 -4 11 -33
-1z"/>
<path d="M540 1934 c0 -10 188 -94 221 -99 22 -3 12 2 -26 16 -33 11 -64 25
-70 29 -15 12 -125 60 -125 54z"/>
<path d="M1345 1908 c-27 -11 -59 -24 -70 -29 -16 -6 -14 -8 13 -8 30 -1 96
-37 155 -85 18 -14 18 -16 -11 -58 -32 -48 -62 -103 -62 -115 0 -4 12 12 26
37 14 24 46 69 72 99 26 30 38 50 28 44 -15 -8 -30 -1 -83 38 -35 27 -69 49
-76 49 -7 0 7 9 31 20 23 10 42 21 42 25 0 8 -10 5 -65 -17z"/>
<path d="M5551 1904 c-12 -27 -11 -28 4 -12 10 9 16 21 13 28 -2 7 -10 -1 -17
-16z"/>
<path d="M6124 1872 l-2 -57 14 38 c10 28 11 45 3 58 -5 10 -11 19 -12 19 -1
0 -3 -26 -3 -58z"/>
<path d="M1845 1901 c-72 -25 -101 -59 -135 -161 -25 -74 -21 -135 11 -172
l20 -23 -17 34 c-19 40 -15 103 11 191 18 58 27 55 39 -11 4 -21 13 -42 20
-48 12 -10 12 -6 1 26 -19 58 -26 97 -17 109 4 6 26 21 50 33 23 12 42 24 42
26 0 3 -1 5 -2 4 -2 -1 -12 -4 -23 -8z"/>
<path d="M4922 1855 c0 -16 3 -52 8 -80 7 -49 7 -49 8 -10 1 22 -3 58 -7 80
-8 34 -9 36 -9 10z"/>
<path d="M1070 1858 c-86 -13 -83 -17 8 -13 46 2 86 6 88 8 10 10 -44 12 -96
5z"/>
<path d="M5430 1855 c-8 -9 -8 -15 -2 -15 12 0 26 19 19 26 -2 2 -10 -2 -17
-11z"/>
<path d="M5370 1835 c-14 -8 -20 -14 -14 -15 5 0 19 7 30 15 24 18 16 19 -16
0z"/>
<path d="M955 1810 l-40 -7 45 -1 c25 0 56 4 70 8 24 8 24 8 -5 8 -16 -1 -48
-4 -70 -8z"/>
<path d="M6090 1780 c-12 -16 -19 -30 -16 -30 2 0 14 14 26 30 12 17 19 30 16
30 -2 0 -14 -13 -26 -30z"/>
<path d="M4826 1738 c-22 -33 -64 -85 -93 -115 -58 -58 -72 -84 -21 -37 77 70
163 183 156 204 -2 5 -21 -18 -42 -52z"/>
<path d="M6173 1740 c0 -25 2 -35 4 -22 2 12 2 32 0 45 -2 12 -4 2 -4 -23z"/>
<path d="M5800 1746 c0 -3 9 -10 20 -16 11 -6 20 -8 20 -6 0 3 -9 10 -20 16
-11 6 -20 8 -20 6z"/>
<path d="M4213 1733 c9 -2 25 -2 35 0 9 3 1 5 -18 5 -19 0 -27 -2 -17 -5z"/>
<path d="M1132 1700 c0 -14 2 -19 5 -12 2 6 2 18 0 25 -3 6 -5 1 -5 -13z"/>
<path d="M5865 1680 l-50 -7 45 0 c25 -1 56 3 70 7 31 10 8 10 -65 0z"/>
<path d="M1820 1675 c0 -5 5 -17 10 -25 5 -8 10 -10 10 -5 0 6 -5 17 -10 25
-5 8 -10 11 -10 5z"/>
<path d="M5661 1655 c-2 -30 -43 -94 -77 -115 -19 -14 -24 -20 -12 -20 20 0
86 75 94 107 3 12 4 28 1 35 -3 7 -6 4 -6 -7z"/>
<path d="M5212 1640 c0 -14 2 -19 5 -12 2 6 2 18 0 25 -3 6 -5 1 -5 -13z"/>
<path d="M1870 1581 c0 -6 4 -13 10 -16 6 -3 7 1 4 9 -7 18 -14 21 -14 7z"/>
<path d="M950 1575 c-7 -32 23 -125 37 -112 2 3 -1 16 -8 29 -7 12 -16 39 -20
58 -4 19 -8 31 -9 25z"/>
<path d="M1560 1566 c0 -9 5 -16 10 -16 6 0 10 4 10 9 0 6 -4 13 -10 16 -5 3
-10 -1 -10 -9z"/>
<path d="M708 1553 c6 -2 18 -2 25 0 6 3 1 5 -13 5 -14 0 -19 -2 -12 -5z"/>
<path d="M4600 1541 c14 -27 14 -29 -21 -46 -17 -9 -28 -19 -25 -22 7 -8 116
68 116 80 0 6 -9 2 -21 -9 -19 -17 -21 -18 -30 -1 -14 24 -32 22 -19 -2z"/>
<path d="M6085 1534 c-15 -12 -34 -14 -75 -10 -60 6 -42 -7 25 -18 35 -5 42
-3 58 19 21 29 20 30 -8 9z"/>
<path d="M1908 1519 c11 -14 6 -16 -40 -12 -39 2 -48 1 -33 -6 26 -12 82 -14
89 -2 3 5 -2 15 -12 22 -15 12 -16 12 -4 -2z"/>
<path d="M5423 1508 c15 -10 66 -9 92 1 12 5 -3 8 -42 7 -34 0 -56 -4 -50 -8z"/>
<path d="M4140 1484 c30 -14 71 -28 90 -30 25 -3 16 3 -32 20 -98 36 -120 40
-58 10z"/>
<path d="M2203 1473 c9 -2 23 -2 30 0 6 3 -1 5 -18 5 -16 0 -22 -2 -12 -5z"/>
<path d="M2308 1473 c6 -2 18 -2 25 0 6 3 1 5 -13 5 -14 0 -19 -2 -12 -5z"/>
<path d="M4921 1435 c-29 -80 -102 -136 -215 -164 -40 -10 -82 -24 -92 -30
-18 -12 -18 -12 1 -7 11 2 45 10 75 16 30 6 71 20 90 30 19 11 47 24 61 30 48
20 117 122 100 148 -4 7 -12 -2 -20 -23z"/>
<path d="M6185 1450 c10 -11 20 -20 23 -20 3 0 -3 9 -13 20 -10 11 -20 20 -23
20 -3 0 3 -9 13 -20z"/>
<path d="M1666 1438 c3 -4 28 -8 56 -8 28 0 49 2 47 4 -8 8 -108 12 -103 4z"/>
<path d="M4380 1440 l-65 -7 70 -1 c39 0 79 3 90 8 18 8 18 8 -5 8 -14 -1 -54
-4 -90 -8z"/>
<path d="M555 1430 c-13 -6 11 -8 70 -8 77 0 83 2 45 9 -58 10 -90 10 -115 -1z"/>
<path d="M1855 1431 c-3 -6 -22 -11 -41 -11 -35 0 -111 -26 -102 -35 3 -3 24
2 48 10 23 8 55 15 70 15 32 0 73 -40 65 -62 -4 -9 -2 -19 4 -23 18 -10 12
-44 -13 -78 -30 -42 -43 -66 -27 -51 8 7 37 9 79 6 37 -2 65 -2 62 1 -3 3 -29
7 -58 8 -28 2 -52 7 -52 12 0 5 9 21 20 37 11 15 25 40 31 56 l11 29 11 -23
c8 -18 7 -30 -7 -55 l-18 -32 21 25 c31 38 27 74 -16 121 -42 47 -42 47 60 9
26 -10 47 -16 47 -13 0 8 -87 42 -121 47 -19 2 -41 7 -50 11 -10 3 -20 2 -24
-4z"/>
<path d="M1150 1398 c-19 -12 -57 -30 -85 -39 -44 -15 -46 -18 -20 -18 31 -1
95 25 130 52 32 25 12 28 -25 5z"/>
<path d="M2070 1411 c0 -5 7 -11 14 -14 10 -4 13 -1 9 9 -6 15 -23 19 -23 5z"/>
<path d="M4593 1386 c-90 -38 -83 -51 9 -15 56 21 83 40 58 38 -8 0 -38 -11
-67 -23z"/>
<path d="M850 1381 c0 -15 83 -77 119 -89 45 -16 50 -9 9 12 -18 9 -54 32 -80
51 -27 20 -48 31 -48 26z"/>
<path d="M2095 1371 c-3 -6 1 -18 9 -26 16 -16 9 -53 -16 -82 -18 -22 -3 -25
17 -3 17 19 18 19 56 -1 49 -24 51 -18 4 11 -26 16 -35 29 -35 48 -1 32 -25
68 -35 53z"/>
<path d="M1584 1359 c-10 -4 -15 -8 -11 -8 17 -2 -22 -31 -40 -31 -26 0 -85
-63 -78 -81 7 -18 -41 -73 -55 -64 -13 8 -13 61 0 86 6 10 8 19 6 19 -3 0 -13
-14 -21 -31 -19 -36 -12 -85 14 -94 9 -3 73 -5 142 -5 205 0 199 0 199 -21 0
-10 0 -22 1 -26 0 -4 -33 -15 -73 -25 -40 -10 -82 -22 -93 -27 -11 -6 -29 -12
-40 -15 -11 -3 13 -2 53 1 62 4 72 3 72 -11 0 -9 -7 -16 -15 -16 -8 0 -15 5
-15 12 0 9 -3 9 -12 0 -6 -6 -12 -30 -12 -54 -1 -34 -5 -43 -19 -43 -10 0 -23
-11 -30 -24 -7 -15 -28 -30 -52 -37 l-40 -13 48 5 c62 7 108 27 150 64 41 36
48 31 76 -56 10 -32 25 -62 33 -68 22 -14 63 0 96 34 16 16 32 27 35 23 3 -3
-9 -36 -28 -74 -49 -97 -43 -100 8 -4 57 107 156 265 167 264 3 0 12 -10 21
-22 24 -32 179 -333 179 -346 0 -6 -9 -11 -19 -11 -39 0 -30 -19 34 -77 73
-65 162 -126 214 -149 40 -17 161 -17 161 0 0 6 14 -5 30 -24 16 -19 30 -30
30 -25 0 13 -105 150 -195 254 -110 126 -136 175 -146 275 -5 47 -15 114 -22
150 l-13 64 40 -29 c23 -15 53 -38 69 -50 15 -11 27 -17 27 -13 0 7 -30 35
-100 92 -25 20 -64 53 -87 74 l-43 38 -77 -39 c-57 -29 -81 -37 -91 -29 -19
16 -121 4 -175 -21 -56 -26 -53 -26 -60 -1 -4 14 -10 18 -22 14 -12 -5 -13 -9
-4 -14 15 -10 5 -40 -13 -40 -7 0 -20 5 -28 10 -13 9 -13 12 0 23 16 13 40 60
40 79 0 5 -7 7 -16 4 -11 -4 -14 -1 -12 12 2 9 9 16 16 15 6 -2 9 4 6 12 -4 8
-8 15 -10 15 -6 0 -34 -58 -33 -67 3 -19 -3 -21 -33 -12 -18 5 -55 11 -82 13
-59 4 -80 25 -70 71 8 40 21 54 58 63 31 8 31 9 5 14 -14 2 -34 1 -45 -3z
m-64 -109 c0 -11 -4 -20 -10 -20 -5 0 -10 2 -10 4 0 2 -3 11 -6 20 -4 11 -1
16 10 16 9 0 16 -8 16 -20z m-15 -60 c3 -5 1 -10 -4 -10 -6 0 -11 5 -11 10 0
6 2 10 4 10 3 0 8 -4 11 -10z m123 -7 c2 -8 -5 -13 -17 -13 -12 0 -21 6 -21
16 0 18 31 15 38 -3z m402 -32 c0 -6 -51 -35 -112 -67 -62 -31 -117 -60 -122
-65 -5 -5 2 -25 17 -48 15 -22 27 -43 27 -47 0 -3 9 -13 21 -22 13 -12 18 -23
13 -35 -9 -23 -26 -17 -41 15 -19 38 -42 55 -53 38 -12 -19 -40 -5 -40 20 0
12 4 19 9 15 17 -10 21 11 6 31 -20 26 -18 58 4 78 15 14 23 15 45 5 33 -15
57 1 37 25 -15 18 -7 23 65 45 63 20 124 26 124 12z m-224 -312 c10 -17 -13
-36 -27 -22 -12 12 -4 33 11 33 5 0 12 -5 16 -11z"/>
<path d="M6121 1344 c0 -11 3 -14 6 -6 3 7 2 16 -1 19 -3 4 -6 -2 -5 -13z"/>
<path d="M3928 1333 c6 -2 18 -2 25 0 6 3 1 5 -13 5 -14 0 -19 -2 -12 -5z"/>
<path d="M5716 1313 c-6 -14 -5 -15 5 -6 7 7 10 15 7 18 -3 3 -9 -2 -12 -12z"/>
<path d="M6262 1300 c0 -19 2 -27 5 -17 2 9 2 25 0 35 -3 9 -5 1 -5 -18z"/>
<path d="M4338 1296 c-26 -12 -54 -29 -63 -36 -9 -8 -24 -15 -33 -16 -55 -6
-98 -17 -107 -26 -7 -7 5 -9 40 -5 49 6 49 6 28 -11 -12 -9 -67 -48 -122 -87
-56 -38 -101 -74 -101 -78 0 -9 16 -1 40 19 24 19 180 114 180 108 0 -3 -18
-37 -39 -77 -72 -133 -91 -189 -95 -285 -2 -48 -1 -80 1 -71 3 12 20 18 63 22
104 11 200 58 200 98 0 10 5 40 11 68 8 40 15 51 39 61 17 7 36 10 44 7 10 -4
14 0 13 12 0 11 -6 17 -12 15 -13 -5 -135 176 -135 201 0 14 6 16 33 11 93
-16 117 -18 117 -8 0 6 -17 14 -37 18 -21 3 -51 9 -68 13 l-30 8 42 21 c39 21
64 42 46 42 -4 0 -29 -11 -55 -24z"/>
<path d="M6174 1283 c9 -18 19 -61 23 -95 6 -59 7 -61 17 -33 l10 30 7 -30 7
-30 1 31 c1 33 -40 124 -66 146 -14 12 -14 10 1 -19z"/>
<path d="M5642 1275 c0 -16 2 -22 5 -12 2 9 2 23 0 30 -3 6 -5 -1 -5 -18z"/>
<path d="M4170 1265 c33 -19 50 -18 26 0 -11 8 -27 15 -35 15 -10 -1 -7 -6 9
-15z"/>
<path d="M232 1250 c0 -14 2 -19 5 -12 2 6 2 18 0 25 -3 6 -5 1 -5 -13z"/>
<path d="M720 1260 c-8 -5 -10 -10 -5 -10 6 0 17 5 25 10 8 5 11 10 5 10 -5 0
-17 -5 -25 -10z"/>
<path d="M5703 1235 c0 -22 2 -30 4 -17 2 12 2 30 0 40 -3 9 -5 -1 -4 -23z"/>
<path d="M660 1230 c-9 -6 -10 -10 -3 -10 6 0 15 5 18 10 8 12 4 12 -15 0z"/>
<path d="M908 1209 c-21 -11 -38 -22 -38 -24 0 -7 53 17 70 32 19 18 12 16
-32 -8z"/>
<path d="M5600 1224 c0 -6 7 -19 16 -30 14 -18 14 -18 3 6 -14 31 -19 36 -19
24z"/>
<path d="M4479 1153 c16 -32 43 -74 60 -93 l31 -35 -23 36 c-12 19 -36 61 -52
92 -17 31 -33 57 -38 57 -4 0 6 -26 22 -57z"/>
<path d="M550 1157 c-31 -24 -64 -57 -74 -73 -12 -18 7 -5 50 35 38 36 73 68
79 73 5 4 7 8 5 8 -3 0 -30 -20 -60 -43z"/>
<path d="M5565 1190 c-3 -6 1 -7 9 -4 18 7 21 14 7 14 -6 0 -13 -4 -16 -10z"/>
<path d="M803 1141 c-27 -21 -64 -61 -82 -89 -32 -51 -71 -141 -71 -165 1 -14
21 30 45 97 13 35 38 68 93 122 41 41 73 74 69 74 -3 0 -27 -17 -54 -39z"/>
<path d="M931 1157 c-13 -21 -12 -21 5 -5 10 10 16 20 13 22 -3 3 -11 -5 -18
-17z"/>
<path d="M5710 1171 c0 -6 4 -13 10 -16 6 -3 7 1 4 9 -7 18 -14 21 -14 7z"/>
<path d="M5817 1147 l-17 -32 20 24 c17 20 26 41 18 41 -2 0 -11 -15 -21 -33z"/>
<path d="M6021 1119 c-21 -26 -27 -38 -15 -31 16 8 62 72 52 72 -2 0 -18 -19
-37 -41z"/>
<path d="M1307 1123 c-20 -14 -37 -30 -37 -35 0 -6 18 5 40 22 35 28 46 40 37
40 -1 0 -19 -12 -40 -27z"/>
<path d="M5665 1130 c10 -11 20 -20 23 -20 3 0 -3 9 -13 20 -10 11 -20 20 -23
20 -3 0 3 -9 13 -20z"/>
<path d="M900 1115 c-7 -9 -10 -18 -7 -21 3 -3 10 4 17 15 13 25 8 27 -10 6z"/>
<path d="M830 1090 c0 -5 7 -7 15 -4 8 4 15 8 15 10 0 2 -7 4 -15 4 -8 0 -15
-4 -15 -10z"/>
<path d="M866 1025 c-3 -9 -5 -35 -5 -58 2 -40 2 -39 9 13 7 59 6 71 -4 45z"/>
<path d="M1063 1019 c-46 -29 -41 -36 5 -8 46 28 47 29 36 29 -5 0 -24 -10
-41 -21z"/>
<path d="M1420 1013 c0 -16 7 -50 15 -78 14 -47 14 -48 9 -10 -2 22 -5 57 -6
78 -1 42 -18 52 -18 10z"/>
<path d="M5923 960 c-33 -73 -61 -95 -158 -126 -28 -9 -33 -13 -17 -13 65 -2
156 62 189 136 14 29 29 51 34 48 5 -4 6 1 3 9 -10 26 -18 18 -51 -54z"/>
<path d="M4821 979 c-34 -13 -93 -50 -88 -55 2 -2 35 12 73 31 63 32 73 47 15
24z"/>
<path d="M4921 976 c2 -2 15 -9 29 -15 24 -11 24 -11 6 3 -16 13 -49 24 -35
12z"/>
<path d="M973 938 c-20 -26 -26 -41 -15 -34 8 5 12 -2 12 -21 0 -16 7 -38 15
-49 13 -17 14 -16 4 14 -6 18 -9 49 -6 68 6 37 5 41 -10 22z"/>
<path d="M4980 946 c0 -3 9 -10 20 -16 11 -6 20 -8 20 -6 0 3 -9 10 -20 16
-11 6 -20 8 -20 6z"/>
<path d="M1190 920 c-18 -12 -2 -12 25 0 13 6 15 9 5 9 -8 0 -22 -4 -30 -9z"/>
<path d="M4675 910 c-19 -8 -19 -9 2 -9 12 -1 25 4 28 9 7 12 -2 12 -30 0z"/>
<path d="M5031 918 c2 -2 18 -14 34 -28 l30 -25 -24 28 c-14 15 -29 27 -34 27
-6 0 -8 -1 -6 -2z"/>
<path d="M932 830 c0 -19 2 -27 5 -17 2 9 2 25 0 35 -3 9 -5 1 -5 -18z"/>
<path d="M5091 853 c-1 -7 8 -36 19 -65 11 -29 20 -60 20 -69 0 -8 12 -26 27
-40 l27 -24 -22 29 c-33 44 -27 52 21 31 14 -6 28 1 55 30 37 38 30 38 -19 2
-25 -18 -28 -18 -58 -3 -17 9 -31 22 -31 29 -1 17 -38 94 -39 80z"/>
<path d="M5470 856 c0 -2 8 -10 18 -17 15 -13 16 -12 3 4 -13 16 -21 21 -21
13z"/>
<path d="M1224 821 c-47 -17 -104 -48 -104 -57 0 -2 17 3 38 12 20 9 66 27
102 40 40 14 55 23 40 23 -14 0 -48 -8 -76 -18z"/>
<path d="M5869 823 c6 -12 11 -32 11 -44 0 -27 -79 -106 -150 -150 -58 -36
-68 -52 -12 -19 103 61 187 148 176 184 -3 11 -13 28 -21 36 -14 13 -14 13 -4
-7z"/>
<path d="M4711 825 c1 -19 18 -51 18 -35 0 8 -4 22 -9 30 -5 8 -9 11 -9 5z"/>
<path d="M5180 825 c0 -5 5 -17 10 -25 5 -8 10 -10 10 -5 0 6 -5 17 -10 25 -5
8 -10 11 -10 5z"/>
<path d="M3031 750 c-24 -38 -69 -94 -100 -124 l-56 -55 -147 99 c-81 54 -157
102 -169 105 -21 7 -20 4 9 -33 34 -42 126 -130 192 -184 22 -17 40 -35 40
-39 0 -4 -25 -13 -56 -20 -31 -7 -58 -19 -61 -26 -6 -15 39 -67 72 -85 31 -18
83 -11 135 18 l49 27 36 -27 c41 -32 192 -107 250 -126 22 -7 44 -16 50 -21
12 -12 35 -12 35 0 0 5 -14 34 -31 63 -29 51 -37 57 -123 96 -50 24 -106 51
-124 62 l-33 20 20 29 c33 46 81 176 81 219 0 43 -8 72 -19 71 -3 0 -26 -31
-50 -69z"/>
<path d="M3425 788 c7 -45 34 -113 34 -83 0 11 -9 43 -20 70 -18 47 -19 48
-14 13z"/>
<path d="M1814 766 c-27 -24 -47 -46 -44 -49 7 -7 87 54 95 72 11 27 -3 21
-51 -23z"/>
<path d="M940 776 c0 -8 4 -17 9 -20 5 -4 7 3 4 14 -6 23 -13 26 -13 6z"/>
<path d="M992 755 c-7 -14 -12 -31 -12 -38 1 -7 7 3 16 22 17 39 13 54 -4 16z"/>
<path d="M5395 710 c10 -11 20 -20 23 -20 3 0 -3 9 -13 20 -10 11 -20 20 -23
20 -3 0 3 -9 13 -20z"/>
<path d="M1570 710 c-16 -6 -1 -7 40 -3 36 3 67 7 69 9 8 8 -84 2 -109 -6z"/>
<path d="M1698 713 c6 -2 18 -2 25 0 6 3 1 5 -13 5 -14 0 -19 -2 -12 -5z"/>
<path d="M1741 715 c0 -5 8 -39 19 -75 16 -56 19 -60 19 -30 0 30 -37 133 -38
105z"/>
<path d="M4655 638 c-73 -70 -105 -92 -105 -70 0 5 -7 17 -15 28 -13 17 -14
13 -9 -46 4 -63 -3 -119 -24 -187 -11 -36 4 -43 23 -11 9 16 125 92 130 86 12
-20 35 -100 33 -119 -2 -16 2 -24 12 -24 8 0 14 8 14 18 -1 10 5 17 17 17 10
0 20 4 24 10 5 9 -15 85 -37 140 -8 20 -6 28 14 45 65 59 68 67 53 113 -16 46
-37 83 -45 80 -3 -1 -41 -37 -85 -80z m-50 -138 c3 -5 -1 -10 -10 -10 -9 0
-13 5 -10 10 3 6 8 10 10 10 2 0 7 -4 10 -10z"/>
<path d="M690 691 c0 -34 129 -103 188 -100 24 2 24 2 4 6 -12 2 -20 8 -18 12
3 4 -7 8 -21 9 -34 3 -103 35 -130 61 -13 12 -23 17 -23 12z"/>
<path d="M956 645 c-3 -9 -6 -26 -5 -38 1 -14 4 -9 9 13 9 37 7 52 -4 25z"/>
<path d="M3973 579 c-34 -41 -91 -103 -127 -138 l-65 -64 -58 38 c-31 21 -85
67 -118 102 -34 35 -65 60 -68 56 -16 -15 -5 -67 22 -107 16 -23 52 -66 80
-94 l50 -51 -57 -35 c-31 -20 -63 -39 -71 -43 -10 -7 -12 -24 -6 -81 4 -40 12
-72 18 -72 19 0 131 78 170 118 l38 39 68 -33 c69 -35 178 -62 191 -47 5 4 4
31 -2 59 l-10 51 -74 23 c-41 13 -74 27 -74 32 0 4 27 44 59 88 85 116 118
182 105 210 -10 22 -13 19 -71 -51z"/>
<path d="M5240 609 c39 -34 109 -73 117 -65 3 3 -5 10 -18 15 -13 5 -49 25
-79 45 -52 34 -53 34 -20 5z"/>
<path d="M1770 564 c0 -10 -97 -42 -145 -47 -28 -4 -27 -4 6 -6 65 -2 165 36
145 56 -3 4 -6 2 -6 -3z"/>
<path d="M630 548 c0 -4 12 -11 26 -14 31 -8 114 -11 107 -4 -9 9 -133 26
-133 18z"/>
<path d="M890 515 c40 -48 43 -51 32 -30 -6 11 -21 29 -34 40 -22 19 -22 19 2
-10z"/>
<path d="M4091 524 c0 -11 3 -14 6 -6 3 7 2 16 -1 19 -3 4 -6 -2 -5 -13z"/>
<path d="M4232 508 c-5 -20 -5 -40 0 -51 7 -14 3 -20 -26 -32 -50 -21 -96 -20
-97 3 -1 9 -7 -21 -14 -68 -15 -98 -12 -118 5 -35 6 31 15 55 20 53 4 -2 31
-31 59 -65 49 -58 81 -124 81 -164 0 -22 1 -23 35 -7 29 13 30 15 11 54 -8 16
-17 43 -21 61 -6 28 -3 34 23 47 16 8 32 13 35 10 3 -3 11 -3 17 1 8 5 -2 21
-29 49 -43 44 -71 99 -71 140 0 38 -18 41 -28 4z"/>
<path d="M1485 510 c-13 -5 -14 -9 -5 -9 8 0 24 4 35 9 13 5 14 9 5 9 -8 0
-24 -4 -35 -9z"/>
<path d="M4856 507 c3 -10 9 -15 12 -12 3 3 0 11 -7 18 -10 9 -11 8 -5 -6z"/>
<path d="M740 475 c19 -19 36 -35 39 -35 3 0 -10 16 -29 35 -19 19 -36 35 -39
35 -3 0 10 -16 29 -35z"/>
<path d="M6088 460 c12 -5 22 -15 22 -21 0 -7 3 -9 6 -6 10 10 -16 37 -35 36
-11 0 -9 -3 7 -9z"/>
<path d="M800 380 c23 -58 31 -154 18 -225 l-7 -40 14 35 c20 51 18 138 -5
206 -11 32 -25 63 -31 69 -6 5 -1 -15 11 -45z"/>
<path d="M4840 375 c-24 -25 -50 -45 -57 -45 -8 0 -16 -14 -20 -31 -4 -20 -10
-28 -20 -25 -7 3 -35 -8 -62 -24 -61 -38 -156 -73 -255 -95 -66 -15 -80 -15
-87 -4 -6 10 -9 6 -9 -13 0 -30 -7 -37 -44 -40 -17 -2 -26 -8 -26 -19 0 -9 -3
-30 -6 -46 l-6 -29 84 7 c112 10 236 48 359 109 67 34 193 130 209 161 6 9 17
24 25 32 13 13 12 20 -11 61 -14 25 -27 46 -28 46 -1 0 -22 -20 -46 -45z"/>
<path d="M6001 394 c-24 -15 -66 -30 -95 -34 l-51 -8 51 -1 c40 -1 60 5 97 29
26 16 47 32 47 35 0 8 -1 7 -49 -21z"/>
<path d="M2615 370 c-3 -6 1 -7 9 -4 18 7 21 14 7 14 -6 0 -13 -4 -16 -10z"/>
<path d="M2677 348 c-9 -32 28 -187 65 -274 l31 -74 186 0 187 0 50 31 c63 41
142 106 154 130 13 23 0 31 -27 16 -112 -65 -197 -101 -306 -128 l-122 -31
-23 29 c-12 15 -55 94 -95 175 -39 81 -77 148 -83 148 -7 0 -14 -10 -17 -22z"/>
<path d="M2740 351 c5 -11 15 -23 21 -27 6 -3 3 5 -6 20 -20 30 -30 35 -15 7z"/>
<path d="M6096 325 c-9 -14 -13 -25 -9 -25 10 0 36 40 30 46 -2 3 -12 -7 -21
-21z"/>
<path d="M5751 313 c-1 -36 34 -68 66 -60 15 3 14 6 -7 14 -30 13 -46 30 -53
58 -3 13 -5 9 -6 -12z"/>
<path d="M950 310 c0 -27 37 -96 47 -86 3 3 0 12 -7 21 -7 8 -18 32 -26 52
-11 32 -13 34 -14 13z"/>
<path d="M2771 305 c12 -31 86 -134 112 -154 22 -18 13 -2 -33 60 -63 85 -86
113 -79 94z"/>
<path d="M2430 209 c-52 -49 -55 -53 -15 -21 48 38 93 82 84 82 -2 0 -33 -28
-69 -61z"/>
<path d="M5500 261 c0 -6 4 -13 10 -16 6 -3 7 1 4 9 -7 18 -14 21 -14 7z"/>
<path d="M3503 175 c0 -33 2 -45 4 -27 2 18 2 45 0 60 -2 15 -4 0 -4 -33z"/>
<path d="M5811 199 c-16 -13 -18 -19 -8 -19 15 0 43 27 36 34 -2 3 -15 -4 -28
-15z"/>
<path d="M941 152 c-28 -28 -30 -31 -9 -22 21 10 55 49 46 53 -2 1 -18 -13
-37 -31z"/>
<path d="M996 123 c-16 -20 -23 -34 -16 -31 16 5 56 56 49 62 -3 3 -18 -11
-33 -31z"/>
<path d="M4003 88 c-49 -82 -50 -88 -15 -88 28 0 32 4 49 58 19 54 20 82 4 82
-4 0 -21 -24 -38 -52z"/>
<path d="M2972 74 c10 -10 20 -16 22 -13 3 3 -5 11 -17 18 -21 13 -21 12 -5
-5z"/>
<path d="M906 49 c-10 -6 -41 -20 -70 -30 -43 -15 -46 -18 -22 -19 26 0 116
43 116 55 0 7 -2 6 -24 -6z"/>
<path d="M544 8 c30 -5 58 -5 75 1 21 7 10 9 -49 9 -75 0 -75 0 -26 -10z"/>
</g>
</svg>
