<svg width="15" height="25" viewBox="0 0 15 25" fill="none" xmlns="http://www.w3.org/2000/svg">
  <path
    d="M13.585 5.61068C13.739 5.8399 14.0496 5.90087 14.2788 5.74686C14.5081 5.59286 14.569 5.28221 14.415 5.05299L13.585 5.61068ZM0.5 7.58212V18.9552H1.5V7.58212H0.5ZM11.5896 18.9552V8.92139H10.5896V18.9552H11.5896ZM3.41045 8.92139V17.54H4.41045V8.92139H3.41045ZM12.6306 4.19019L13.585 5.61068L14.415 5.05299L13.4606 3.6325L12.6306 4.19019ZM8.87313 17.54V9.66368H7.87313V17.54H8.87313ZM6.14179 20.2713C7.65027 20.2713 8.87313 19.0484 8.87313 17.54H7.87313C7.87313 18.4962 7.09799 19.2713 6.14179 19.2713V20.2713ZM3.41045 17.54C3.41045 19.0484 4.63331 20.2713 6.14179 20.2713V19.2713C5.1856 19.2713 4.41045 18.4962 4.41045 17.54H3.41045ZM7.5 4.83184C5.2414 4.83184 3.41045 6.66279 3.41045 8.92139H4.41045C4.41045 7.21508 5.79369 5.83184 7.5 5.83184V4.83184ZM11.5896 8.92139C11.5896 6.6628 9.7586 4.83184 7.5 4.83184V5.83184C9.20631 5.83184 10.5896 7.21508 10.5896 8.92139H11.5896ZM6.04478 24.5C9.10707 24.5 11.5896 22.0175 11.5896 18.9552H10.5896C10.5896 21.4652 8.55479 23.5 6.04478 23.5V24.5ZM0.5 18.9552C0.5 22.0175 2.98248 24.5 6.04478 24.5V23.5C3.53477 23.5 1.5 21.4652 1.5 18.9552H0.5ZM7.58212 0.5C3.67077 0.5 0.5 3.67077 0.5 7.58212H1.5C1.5 4.22306 4.22306 1.5 7.58212 1.5V0.5ZM7.58212 1.5C9.60795 1.5 11.5008 2.50865 12.6306 4.19019L13.4606 3.6325C12.1451 1.67449 9.94103 0.5 7.58212 0.5V1.5Z"
    fill="white" fill-opacity="0.25" />
</svg>